<svg width="1920" height="1000" viewBox="0 0 1920 1000" fill="none" xmlns="http://www.w3.org/2000/svg">
<g style="mix-blend-mode:overlay">
<g style="mix-blend-mode:overlay">
<path d="M1920 920.101L1603.33 981.78L1574.99 1000" stroke="white" stroke-opacity="0.5" stroke-linecap="round" stroke-linejoin="round"/>
</g>
<g style="mix-blend-mode:overlay">
<path d="M1920 705.522L1669.33 767.791L1330.69 838.085L1092.51 958.912L1004.2 1000" stroke="white" stroke-opacity="0.5" stroke-linecap="round" stroke-linejoin="round"/>
</g>
<g style="mix-blend-mode:overlay">
<path d="M1920 547.585L1719.98 607.362L1429.22 682.653L1229.72 786.48L931.368 836.772L699.84 926.933L490.335 1000" stroke="white" stroke-opacity="0.5" stroke-linecap="round" stroke-linejoin="round"/>
</g>
<g style="mix-blend-mode:overlay">
<path d="M1920 241.974L1767.14 310.03L1744.13 320.279L1584.15 385.294L1560.88 394.753L1402.86 452.453L1372.32 463.6L1215.42 514.669L1185.01 524.569L1000.28 576.737L825.131 618.79L660.715 650.46L512.701 671.761L463.541 681.18L376.614 697.832L330.156 704.865L239.676 718.544L103.169 733.012L5.86384 716.936L-0.339844 715.034" stroke="white" stroke-opacity="0.5" stroke-linecap="round" stroke-linejoin="round"/>
</g>
<g style="mix-blend-mode:overlay">
<path d="M1920 425.284L1748.67 484.82L1499.85 561.585L1250 628.395L1007.8 683.028L776.973 724.532L565.832 752.264L376.436 766.518L214.239 768.474L78.6842 759.364L-0.339844 765.995" stroke="white" stroke-opacity="0.5" stroke-linecap="round" stroke-linejoin="round"/>
</g>
<g style="mix-blend-mode:overlay">
<path d="M1920 326.053L1756.7 390.827L1541.83 467.404L1325.57 535.956L1110.31 595.131L903.953 643.145L708.834 679.411L531.909 703.673L374.114 716.32L239.676 718.544L127.616 711.403L5.86384 716.936L-0.339844 716.909" stroke="white" stroke-opacity="0.5" stroke-linecap="round" stroke-linejoin="round"/>
</g>
<g style="mix-blend-mode:overlay">
<path d="M1920 93.616L1815.16 156.099L1804.32 162.557L1691.62 224.772L1675.29 233.775L1557.22 294.383L1541.82 302.287L1425.53 356.893L1402.51 367.718L1285.45 418.184L1262.57 428.044L1154.98 469.749L1121.27 482.811L1019.88 518.139L984.195 530.571L902.392 555.409L850.885 571.057L784.928 588.339L756.053 595.908L726.392 603.678L648.51 622.675L646.759 623.09L618.215 630.057L580.79 637.693L511.192 651.894L505.14 653.126L496.095 654.56L450.956 661.727L387.384 671.815L269.286 685.734L151.911 694.027L71.0216 681.179L9.1877 662.638L-0.339844 657.829" stroke="white" stroke-opacity="0.5" stroke-linecap="round" stroke-linejoin="round"/>
</g>
<g style="mix-blend-mode:overlay">
<path d="M1920 753.63L1824.94 826.925L1452.6 901.988L1278.67 1000" stroke="white" stroke-opacity="0.5" stroke-linecap="round" stroke-linejoin="round"/>
</g>
<g style="mix-blend-mode:overlay">
<path d="M1920 202.453L1815.12 254.044L1647.44 329.59L1498.33 390.975L1475.41 400.406L1423.11 419.751L1330.03 454.168L1299.28 465.529L1156.11 512.807L1125.45 522.935L994.217 560.553L954.774 571.86L793.758 611.234L643.017 640.868L510.101 660.575L507.665 660.937L456.856 669.832L381.155 683.109L334.304 689.419L254.075 700.23L127.616 711.403L39.0644 696.988L-0.339844 684.957" stroke="white" stroke-opacity="0.5" stroke-linecap="round" stroke-linejoin="round"/>
</g>
<g style="mix-blend-mode:overlay">
<path d="M1920 57.4308L1837.96 110.282L1826.25 117.838L1722.38 180.79L1711.95 187.1L1606.23 246.408L1590.08 255.465L1480.01 312.978L1464.9 320.868L1358.27 371.83L1334.85 383.03L1228.7 429.705L1205.03 440.115L1111.08 477.251L1074.37 491.773L989.802 521.916L948.152 536.76L890.961 554.538L877.311 558.785L825.525 574.888L802.486 581.104L711.169 605.728L610.108 628.476L600.834 630.016L515.784 645.115L515.036 645.249L512.092 644.767L509.91 645.128L505.762 645.825L505.47 645.852L496.095 646.87L484.22 648.156L482.343 648.357L482.038 648.571L481.708 648.786L470.519 650.166L455.016 651.693L437.927 653.166L437.877 653.18L435.365 653.448L434.337 654.104L431.28 655.002L420.433 656.529L402.354 657.467L381.79 657.681L372.008 658.244L362.455 659.289L316.708 662.062L243.164 659.423L227.053 657.44L183.36 652.081L135.735 640.319L113.953 635.349L70.7044 625.462L12.3593 606.853L-0.339844 601.575" stroke="white" stroke-opacity="0.5" stroke-linecap="round" stroke-linejoin="round"/>
</g>
<g style="mix-blend-mode:overlay">
<path d="M1747.78 77.888L1668.3 136.406L1661.88 141.122L1591.88 189.123L1569.55 204.422L1503.68 247.078L1474.62 265.901L1390.59 316.153L1374.52 325.772L1289.16 373.545L1273.56 382.267L1199.38 420.193L1180.01 430.094L1169.57 435.439L1110.21 463.479L1105.67 465.636L1067.05 483.883" stroke="white" stroke-opacity="0.5" stroke-linecap="round" stroke-linejoin="round"/>
</g>
<g style="mix-blend-mode:overlay">
<path d="M504.671 648.156L484.322 650.219L478.626 651.331L469.745 653.086L443.395 655.578L420.433 656.529L403.42 658.432L372.084 661.031L368.659 661.312L346.661 663.134L300.951 666.912L199.231 670.341L101.609 669.109L9.1877 662.638L-0.339844 661.432" stroke="white" stroke-opacity="0.5" stroke-linecap="round" stroke-linejoin="round"/>
</g>
<g style="mix-blend-mode:overlay">
<path d="M1920 -18.2753L1837.63 43.8865L1753.54 104.24L1746.72 109.143L1648.66 174.802L1556.74 232.85L1547.17 238.879L1455.81 292.212L1439.84 301.537L1394.72 340.428L1334.85 383.03L1262.57 428.044L1174.12 475.362L1072.39 523.538L954.774 571.86L825.131 618.79L682.523 663.187L531.909 703.673L483.535 714.498L373.949 739.014L214.239 768.474L54.2881 791.115L-0.339844 781.991" stroke="white" stroke-opacity="0.5" stroke-linecap="round" stroke-linejoin="round"/>
</g>
<g style="mix-blend-mode:overlay">
<path d="M1664.06 112.666L1589.31 169.269L1583.38 173.783L1517.76 220.016L1496.89 234.726L1436.15 275.185L1417.25 287.791L1408.47 293.632L1345.44 332.35L1319.47 348.305L1315.39 350.811L1265.81 379.346L1224.5 403.112L1221.89 404.626L1175.44 428.526L1164.91 433.751" stroke="white" stroke-opacity="0.5" stroke-linecap="round" stroke-linejoin="round"/>
</g>
<g style="mix-blend-mode:overlay">
<path d="M1920 20.2141L1837.79 77.9683L1759.08 129.587L1734.22 145.891L1636.25 206.418L1626.27 212.581L1527.67 268.928L1511.63 278.092L1409.67 332.457L1394.72 340.428L1297.97 387.599L1273.71 399.442L1179.07 441.977L1153.58 453.431L1075.68 484.928L1056.27 492.778L1052.19 494.413L1032.95 502.196L973.588 523.886L967.956 525.949L916.753 544.651L904.955 548.416" stroke="white" stroke-opacity="0.5" stroke-linecap="round" stroke-linejoin="round"/>
</g>
<g style="mix-blend-mode:overlay">
<path d="M1920 803.909L1824.94 826.925L1603.33 981.78L1483.08 1000" stroke="white" stroke-opacity="0.5" stroke-linecap="round" stroke-linejoin="round"/>
</g>
<g style="mix-blend-mode:overlay">
<path d="M1920 242.791L1849.18 313.205L1654.4 391.417L1483.39 453.096L1452.96 464.082L1251.52 528.762L1051.97 584.346L861.719 629.293L682.523 663.187L520.656 685.895L376.614 697.832L254.075 700.23L151.911 694.027L39.0644 696.988L-0.339844 695.956" stroke="white" stroke-opacity="0.5" stroke-linecap="round" stroke-linejoin="round"/>
</g>
<g style="mix-blend-mode:overlay">
<path d="M412.339 655.94L401.352 656.65L381.79 657.681L372.008 658.244L362.341 659.141L344.428 660.28L316.708 662.062L221.775 663.428L130.673 660.428L44.4815 652.483L-0.339844 645.704" stroke="white" stroke-opacity="0.5" stroke-linecap="round" stroke-linejoin="round"/>
</g>
<g style="mix-blend-mode:overlay">
<path d="M331.881 659.945L323.559 659.905L243.164 659.423L240.348 659.276L158 654.841L77.441 645.584L3.47878 632.522L-0.339844 631.544" stroke="white" stroke-opacity="0.5" stroke-linecap="round" stroke-linejoin="round"/>
</g>
<g style="mix-blend-mode:overlay">
<path d="M1583.8 126.104L1515.62 184.179L1472.08 219.534L1450.5 237.071L1445.56 241.076L1405.21 271.407L1380.53 289.962L1370.61 297.41L1320.12 333.274L1302.99 345.439L1294.43 351.507L1247.65 381.972L1245.64 383.285L1219.31 400.42L1214.19 403.755L1202.59 410.816" stroke="white" stroke-opacity="0.5" stroke-linecap="round" stroke-linejoin="round"/>
</g>
<g style="mix-blend-mode:overlay">
<path d="M187.255 41.9441L101 44.2751L47.5009 47.2091L23.4092 48.5354L1.71536 50.3707L-0.339844 51.188" stroke="white" stroke-opacity="0.5" stroke-linecap="round" stroke-linejoin="round"/>
</g>
<g style="mix-blend-mode:overlay">
<path d="M1514.44 164.754L1457.41 215.354L1451.11 220.954L1428.02 240.46L1402.05 262.404L1390.52 272.144L1386.17 275.828L1354.78 300.251L1326.56 322.208L1316.54 330.019L1275.59 360.055L1271.75 362.868L1256.22 374.269L1245.76 381.932L1228.55 393.453" stroke="white" stroke-opacity="0.5" stroke-linecap="round" stroke-linejoin="round"/>
</g>
<g style="mix-blend-mode:overlay">
<path d="M1920 589.571L1854.54 640.533L1539.6 720.513L1229.72 786.479L1003.83 891.592L756.472 996.142L689.208 1000" stroke="white" stroke-opacity="0.5" stroke-linecap="round" stroke-linejoin="round"/>
</g>
<g style="mix-blend-mode:overlay">
<path d="M263.082 658.096L253.758 657.4L226.266 655.323L183.36 652.081L107.901 641.632L38.6203 627.618L-0.339844 616.392" stroke="white" stroke-opacity="0.5" stroke-linecap="round" stroke-linejoin="round"/>
</g>
<g style="mix-blend-mode:overlay">
<path d="M264.427 40.2158L186.266 40.5641L116.033 42.922" stroke="white" stroke-opacity="0.5" stroke-linecap="round" stroke-linejoin="round"/>
</g>
<g style="mix-blend-mode:overlay">
<path d="M1451.75 204.141L1398.81 253.2L1393.07 258.519L1372.96 276.203L1346.95 299.072L1336.47 308.289L1332.82 311.491L1293.77 342.92L1291.92 344.407L1280.2 353.852L1267.97 363.685" stroke="white" stroke-opacity="0.5" stroke-linecap="round" stroke-linejoin="round"/>
</g>
<g style="mix-blend-mode:overlay">
<path d="M1920 282.044L1849.18 313.206L1756.7 390.827L1639.92 474.116L1499.85 561.585L1333.71 652.403L1144.44 744.601L931.368 836.772L654.942 870.184L404.79 886.836L188.435 887.814L6.30787 874.672L-0.339844 875.65" stroke="white" stroke-opacity="0.5" stroke-linecap="round" stroke-linejoin="round"/>
</g>
<g style="mix-blend-mode:overlay">
<path d="M1395.72 244.385L1363.49 275.546L1346.47 292.011L1341.23 297.075L1300.77 332.591L1293.87 337.574L1282.86 348.359" stroke="white" stroke-opacity="0.5" stroke-linecap="round" stroke-linejoin="round"/>
</g>
<g style="mix-blend-mode:overlay">
<path d="M1904.24 -140L1851.02 -87.1088L1791.83 -29.9708L1727.06 29.0427L1659.67 88.1233L1586.61 148.101L1530.53 192.003L1511.25 207.088L1449.93 251.673L1430.63 265.7L1374.94 303.975L1348.51 322.128L1292.15 357.777L1281.05 364.797L1264.86 375.032L1262.12 376.774L1226.1 398.088L1208.99 408.23L1187.15 421.145L1175.48 428.057L1164.55 433.966L1121.27 457.236L1061.39 486.281L991.35 516.022L904.955 548.416L803.843 580.662L711.169 605.728L604.133 629.293L516.101 644.083L515.86 644.124L515.695 644.15L515.619 644.177L515.036 645.249L504.671 648.156L484.36 651.023L478.626 651.331L455.156 652.617L438.042 654.171L434.337 654.104L420.09 655.109L412.339 655.94L402.354 657.467L362.455 659.289L342.766 659.409L331.881 659.945L323.483 659.731L304.389 659.209L286.21 658.726L279.156 658.539L272.381 658.351L269.21 658.043L253.504 656.77L238.889 655.43L229.983 654.453L229.298 654.385L225.708 653.81L222.892 653.26L206.488 651.867L200.69 650.688L194.233 648.786L189.539 646.816L186.532 646.24L185.961 646.133L181.978 644.847L178.946 642.757L173.96 640.533L172.729 639.984L172.044 639.435L169.532 638.456L167.185 638.202L164.343 638.363L155.476 636.688L125.345 628.114L109.462 622.032L73.7746 608.354L62.6359 602.901L28.7503 586.302L21.3668 564.68L20.9608 542.856L26.9742 520.51L14.3512 491.988L8.04597 462.903L6.75195 434.153L10.5579 405.671L17.9287 378.114L28.763 351.414L41.5129 326.04L55.9374 301.845L70.5903 279.164L85.2305 257.822L98.5259 237.995L110.198 219.547L119.116 202.56L124.977 186.926L182.46 173.006L236.847 160.735L288.049 149.91L336.055 140.358L380.99 131.851L422.577 124.308L461.131 117.503L496.095 111.407L527.913 105.834L555.709 100.77L580.016 96.0409L599.642 91.7002L615.196 87.574L625.167 83.7425L631.333 79.2813L646.506 84.2114L657.936 89.3558L667.73 97.3538L669.95 97.6217L673.312 102.11L676.522 109.786L678.133 114.596L674.632 123.558L672.526 126.465L667.603 132.789L666.791 133.459L664.28 135.924L656.122 142.394L651.948 145.636L641.888 152.335L637.435 155.269L627.26 161.391L620.448 165.276L604.856 172.162L581.754 179.423L555.024 188.547L525.071 198.313L493.152 208.669L459.304 219.722L424.404 231.417L388.539 243.836L352.256 256.925L315.718 270.764L279.105 285.326L242.759 300.652L206.526 316.809L170.953 333.783L135.723 351.748L101.596 370.611L68.2306 390.68L36.6794 411.74L31.9346 440.45L32.3533 469.347L37.7323 498.539L49.3151 527.101L45.5218 548.59L47.9196 569.302L56.8128 589.611L73.7746 608.354L99.6424 625.743L135.735 640.319L175.114 646.749L193.725 648.29L194.601 646.977L194.867 647.419L200.36 648.853L203.672 649.201L213.047 651.09L223.234 653.408L225.708 653.81L226.926 653.876L226.964 653.89L238.737 655.042L253.504 656.77L263.082 658.096L269.299 658.271L272.381 658.351" stroke="white" stroke-opacity="0.5" stroke-linecap="round" stroke-linejoin="round"/>
</g>
<g style="mix-blend-mode:overlay">
<path d="M1731.48 -56.6442L1681.35 -2.09184L1629.52 52.7821L1572.86 108.982L1514.44 164.754L1515.62 184.179L1511.25 207.088L1496.89 234.726L1474.62 265.901L1439.84 301.537L1346.08 352.686L1331.04 360.899L1273.71 399.442L1205.03 440.115L1121.27 482.811L1025.45 526.136L915.002 569.422L793.758 611.234L660.715 650.46L520.656 685.895L472.168 695.956L374.114 716.32L327.453 724.143L226.329 741.104L78.6842 759.364L-0.339844 746.208" stroke="white" stroke-opacity="0.5" stroke-linecap="round" stroke-linejoin="round"/>
</g>
<g style="mix-blend-mode:overlay">
<path d="M246.298 39.1038L177.081 40.2827" stroke="white" stroke-opacity="0.5" stroke-linecap="round" stroke-linejoin="round"/>
</g>
<g style="mix-blend-mode:overlay">
<path d="M1652.38 -11.8984L1605.97 41.6358L1558.12 95.2638L1505.74 150.004L1451.75 204.141L1451.11 220.954L1445.56 241.076L1430.63 265.7L1408.47 293.632L1374.52 325.772L1331.04 360.899L1244.75 403.93L1218.77 416.898L1137.56 454.289L1123 461.001L1111.19 466.44L1107.77 468.007L1054.25 490.166L1048.36 492.604L996.424 514.106L991.35 516.022" stroke="white" stroke-opacity="0.5" stroke-linecap="round" stroke-linejoin="round"/>
</g>
<g style="mix-blend-mode:overlay">
<path d="M1920 621.335L1854.54 640.533L1669.33 767.791L1452.6 901.988L1092.51 958.912L756.472 996.142L746.412 1000" stroke="white" stroke-opacity="0.5" stroke-linecap="round" stroke-linejoin="round"/>
</g>
<g style="mix-blend-mode:overlay">
<path d="M1920 347.783L1868.97 393.48L1639.92 474.116L1407.95 546.674L1176 609.586L952.389 660.829L740.119 699.654L643.791 712.582L546.815 725.59L373.949 739.014L226.329 741.104L103.169 733.012L-0.339844 739.697" stroke="white" stroke-opacity="0.5" stroke-linecap="round" stroke-linejoin="round"/>
</g>
<g style="mix-blend-mode:overlay">
<path d="M-0.339844 56.9485L65.0336 53.961L141.495 52.8356L207.236 53.9476L262.258 57.0691L308.411 61.7178L345.544 67.7732L375.117 74.9272L397.001 83.1261L412.415 92.1691L421.27 102.096L424.657 112.787L422.577 124.308L415.98 136.607L404.993 149.816L390.48 163.896L372.668 178.995L352.344 195.111L329.864 212.353L287.643 224.129L244.002 236.963L198.838 250.99L152.469 266.329L104.628 283.263L55.9374 301.845L6.13026 322.463L-0.339844 337.333" stroke="white" stroke-opacity="0.5" stroke-linecap="round" stroke-linejoin="round"/>
</g>
<g style="mix-blend-mode:overlay">
<path d="M1345.56 278.481L1320.56 307.284L1315.21 312.134L1310.49 316.689" stroke="white" stroke-opacity="0.5" stroke-linecap="round" stroke-linejoin="round"/>
</g>
<g style="mix-blend-mode:overlay">
<path d="M1920 459.554L1870.17 500.294L1603.02 581.479L1333.71 652.403L1071.27 710.599L820.222 754.903L589.556 784.483L381.993 799.595L203.671 801.364L54.2881 791.115L-0.339844 796.795" stroke="white" stroke-opacity="0.5" stroke-linecap="round" stroke-linejoin="round"/>
</g>
<g style="mix-blend-mode:overlay">
<path d="M390.708 43.6052L334.964 40.6311L330.561 40.4033L308.614 40.0282L259.403 39.1842L225.961 39.6263" stroke="white" stroke-opacity="0.5" stroke-linecap="round" stroke-linejoin="round"/>
</g>
<g style="mix-blend-mode:overlay">
<path d="M1920 165.249L1866.7 193.865L1716.67 268.647L1581.4 330.353L1558.52 340.79L1420.11 398.557L1412.21 401.853L1397.44 408.016L1264.55 457.839L1233.33 469.548L1103.75 513.021L1072.39 523.538L956.474 557.338L915.002 569.422L767.154 606.317L629.011 634.129L511.141 652.215L505.14 653.126L485.502 655.002L421.536 661.124L394.946 663.656L343.87 668.801L285.017 674.722L175.85 680.443L71.0216 681.179L-0.339844 677.75" stroke="white" stroke-opacity="0.5" stroke-linecap="round" stroke-linejoin="round"/>
</g>
<g style="mix-blend-mode:overlay">
<path d="M1920 373.492L1868.97 393.48L1748.67 484.82L1603.02 581.479L1429.22 682.653L1144.44 744.601L871.069 791.838L618.824 823.321L391.165 839.25L194.905 840.724L30.1077 829.176L-0.339844 832.967" stroke="white" stroke-opacity="0.5" stroke-linecap="round" stroke-linejoin="round"/>
</g>
<g style="mix-blend-mode:overlay">
<path d="M1920 483.226L1870.17 500.294L1719.98 607.362L1539.6 720.513L1330.69 838.084L1003.83 891.592L699.84 926.933L424.15 944.135L229.501 1000" stroke="white" stroke-opacity="0.5" stroke-linecap="round" stroke-linejoin="round"/>
</g>
<g style="mix-blend-mode:overlay">
<path d="M1852.98 -140L1816.77 -100.506L1763.23 -45.0424L1707.58 11.0104L1646.75 68.6709L1583.8 126.104L1586.61 148.101L1583.38 173.783L1569.55 204.422L1547.17 238.879L1511.63 278.092L1464.9 320.869L1402.51 367.718L1326.6 417.3L1233.33 469.548L1125.45 522.935L1000.28 576.737L861.719 629.293L708.834 679.411L601.405 710.037L546.815 725.59L376.436 766.518L203.671 801.364L30.1077 829.176L-0.339844 824.071" stroke="white" stroke-opacity="0.5" stroke-linecap="round" stroke-linejoin="round"/>
</g>
<g style="mix-blend-mode:overlay">
<path d="M1920 -105.597L1881.84 -70.0812L1813.47 -9.83517L1741.87 50.8262L1664.06 112.667L1661.88 141.122L1648.66 174.802L1626.27 212.581L1590.08 255.465L1541.82 302.287L1476.98 353.571L1410.52 399.067L1397.44 408.016L1299.28 465.529L1185.01 524.569L1051.97 584.346L903.953 643.146L740.119 699.654L688.422 715.261L565.832 752.264L381.993 799.595L194.905 840.724L6.30787 874.672L-0.339844 873.56" stroke="white" stroke-opacity="0.5" stroke-linecap="round" stroke-linejoin="round"/>
</g>
<g style="mix-blend-mode:overlay">
<path d="M381.155 108.875L337.044 116.592L289.394 125.327L237.963 135.307L182.916 146.695L124.216 159.73L61.7858 174.641L-0.339844 190.677" stroke="white" stroke-opacity="0.5" stroke-linecap="round" stroke-linejoin="round"/>
</g>
<g style="mix-blend-mode:overlay">
<path d="M-0.339844 84.7875L44.177 85.1626L95.4558 87.8688L138.019 92.2764L171.955 98.3318L198.495 105.714L217.842 114.422L230.884 124.282L237.963 135.307L239.79 147.445L236.847 160.735L229.691 175.177L218.997 190.824L205.206 207.731L153.09 221.972L98.5259 237.995L41.9949 255.92L-0.339844 270.469" stroke="white" stroke-opacity="0.5" stroke-linecap="round" stroke-linejoin="round"/>
</g>
<g style="mix-blend-mode:overlay">
<path d="M-0.339844 97.2065L40.0666 99.0017L82.3633 103.275L116.566 109.157L142.979 116.565L162.516 125.327L175.596 135.401L182.916 146.695L185.035 159.234L182.46 173.006L175.913 188.024L119.116 202.56L63.1306 218.034L59.6545 218.998L51.8396 236.749L-0.339844 253.428" stroke="white" stroke-opacity="0.5" stroke-linecap="round" stroke-linejoin="round"/>
</g>
<g style="mix-blend-mode:overlay">
<path d="M1803.47 -140L1777.11 -109.147L1735.53 -114.68L1690.06 -115.926L1644.08 -114.573L1595.91 -109.468L1572.67 -64.8967L1546.57 -18.2351L1519.84 28.9757L1489.78 77.9416L1458.63 127.095L1423.53 177.521L1386.81 227.679L1345.56 278.481L1346.05 285.715L1341.23 297.076L1332.82 311.491L1316.54 330.019L1294.43 351.507L1262.12 376.774L1221.89 404.626L1169.57 435.439L1107.77 468.007L1032.95 502.196L948.152 536.76L850.885 571.057L744.864 603.852L629.011 634.129L510.126 660.387L507.665 660.937L387.384 671.815L285.017 674.722L199.231 670.341L130.673 660.428L77.441 645.584L38.6203 627.618L12.3593 606.853L-0.339844 588.7" stroke="white" stroke-opacity="0.5" stroke-linecap="round" stroke-linejoin="round"/>
</g>
<g style="mix-blend-mode:overlay">
<path d="M1920 101.56L1903.44 139.166L1783.91 204.208L1767.45 213.17L1641.47 276.833L1625.67 284.817L1499.86 343L1476.98 353.571L1402.13 385.294L1349.22 407.721L1326.6 417.3L1206.22 463.144L1174.12 475.362L1058.26 514.937L1025.45 526.137L925.519 555.838L880.533 569.194L791.969 591.822L744.864 603.852L630.927 627.431L618.215 630.057L515.771 646.374" stroke="white" stroke-opacity="0.5" stroke-linecap="round" stroke-linejoin="round"/>
</g>
<g style="mix-blend-mode:overlay">
<path d="M1564.26 -140L1548.87 -102.274L1529.64 -58.7341L1510.06 -14.4572L1473.14 -7.27641L1457.17 36.7862L1438.29 82.6975L1419.37 126.599L1418.31 129.051L1396.57 173.073L1394.67 176.918L1370.4 222.588L1369.17 224.879L1341.17 270.643L1339.19 273.872L1335.42 276.337L1330.37 284.777L1329.43 286.345" stroke="white" stroke-opacity="0.5" stroke-linecap="round" stroke-linejoin="round"/>
</g>
<g style="mix-blend-mode:overlay">
<path d="M524.411 58.2214L488.597 50.9736L485.438 49.6875L484.157 49.299L474.769 47.9593L447.95 45.923L434.718 44.6234L391.774 42.9086L387.549 45.8292L377.007 48.7765L324.168 44.6502L260.9 42.279L187.255 41.9441L186.266 40.5642L177.081 40.2828L116.033 42.922L96.8132 44.8914L84.9767 49.4865L65.0336 53.9611L36.8062 59.8826L1.85491 67.1169L-0.339844 67.5724" stroke="white" stroke-opacity="0.5" stroke-linecap="round" stroke-linejoin="round"/>
</g>
<g style="mix-blend-mode:overlay">
<path d="M-0.339844 61.5571L36.8062 59.8824L111.999 58.6767L141.495 52.8357L164.483 48.0663L179.491 44.5027L250.282 45.1994L309.946 47.9726L360.388 52.3266L401.466 58.0873L434.73 64.9063L459.938 72.7167L478.473 81.3042L490.081 90.6686L496.019 100.69L496.095 111.407L491.477 122.768L455.117 129.359L415.98 136.607L373.708 144.699L328.659 153.688L280.628 163.803L229.691 175.177L175.913 188.024L165.828 204.342L153.09 221.972L138.057 241.023L121.806 261.413L104.628 283.263L87.7804 306.453L71.5164 331.077L57.2441 356.853L17.9287 378.114L-0.339844 389.086" stroke="white" stroke-opacity="0.5" stroke-linecap="round" stroke-linejoin="round"/>
</g>
<g style="mix-blend-mode:overlay">
<path d="M1272.81 -140L1241.65 -119.503L1218.51 -97.7996L1205.98 -75.6678L1205.05 -53.6299L1215.67 -30.7881L1235.26 -13.4658L1247.53 -2.62768L1264.67 14.6544L1272.5 22.5452L1276.45 26.149L1277.95 27.8504L1278.12 28.0915" stroke="white" stroke-opacity="0.5" stroke-linecap="round" stroke-linejoin="round"/>
</g>
<g style="mix-blend-mode:overlay">
<path d="M1549.43 -140L1514.73 -132.324L1464.85 -118.351L1419.19 -103.252L1377.34 -86.1175L1342.04 -68.3397L1313.27 -49.0749L1293.14 -29.4082L1281.72 -8.42855L1280.25 13.1539L1296.15 37.6971L1302.31 47.1688L1314.49 70.3857L1323.52 86.7836L1327.44 93.1471" stroke="white" stroke-opacity="0.5" stroke-linecap="round" stroke-linejoin="round"/>
</g>
<g style="mix-blend-mode:overlay">
<path d="M423.122 263.57L391.393 278.936L358.599 295.347L331.932 314.143L306.737 333.502L298.871 338.539L275.452 353.49L245.448 374.376L216.777 396.173L190.757 418.519L167.135 441.495L147.293 464.551L130.737 487.888L118.862 510.77L111.022 533.532L108.599 555.262" stroke="white" stroke-opacity="0.5" stroke-linecap="round" stroke-linejoin="round"/>
</g>
<g style="mix-blend-mode:overlay">
<path d="M450.868 247.828L419.215 262.056L386.128 277.235L358.599 295.347L325.297 312.763L292.426 331.104L267.814 352.499L237.494 372.956L208.67 394.244L182.561 415.973L167.134 441.495L155.425 466.949L146.646 492.497L141.85 517.375L139.973 541.851L141.901 565.055L146.367 587.401L154.042 607.912L163.57 627.203L171.841 639.153" stroke="white" stroke-opacity="0.5" stroke-linecap="round" stroke-linejoin="round"/>
</g>
<g style="mix-blend-mode:overlay">
<path d="M1271.95 22.063L1264.67 14.6545L1247.53 -2.6276L1234.04 -25.6972L1225.96 -33.4942L1205.05 -53.6298L1175.09 -79.1912L1144.44 -102.971L1112.99 -124.513" stroke="white" stroke-opacity="0.5" stroke-linecap="round" stroke-linejoin="round"/>
</g>
<g style="mix-blend-mode:overlay">
<path d="M478.562 232.797L447.328 245.872L414.305 259.872L386.129 277.235L352.37 293.365L318.408 310.432L292.426 331.104L260.177 350.342L229.603 370.277L208.67 394.244L190.757 418.519L175.343 443.183L163.506 467.659L154.435 492.095L149.145 515.754L146.557 538.904L147.559 560.687L150.883 581.493L157.214 600.45L165.27 618.04L175.558 633.446L183.729 643.4" stroke="white" stroke-opacity="0.5" stroke-linecap="round" stroke-linejoin="round"/>
</g>
<g style="mix-blend-mode:overlay">
<path d="M1731.48 -56.6442L1763.23 -45.0425L1791.83 -29.9709L1813.47 -9.83529L1830.09 14.2792L1837.63 43.8865L1837.79 77.9683L1826.25 117.838L1804.32 162.557L1767.44 213.17L1716.67 268.647L1647.44 329.59L1560.88 394.753L1452.96 464.082L1325.57 535.956L1176 609.586L1007.8 683.028L820.222 754.903L618.824 823.321L404.79 886.836L184.959 944.322L-0.339844 986.188" stroke="white" stroke-opacity="0.5" stroke-linecap="round" stroke-linejoin="round"/>
</g>
<g style="mix-blend-mode:overlay">
<path d="M387.739 435.613L356.302 425.579L354.209 424.427L347.752 423.904L324.916 420.408L318.205 419.765L297.856 417.099L282.366 414.915L277.443 414.861L253.808 412.999L243.634 412.209L237.988 411.633" stroke="white" stroke-opacity="0.5" stroke-linecap="round" stroke-linejoin="round"/>
</g>
<g style="mix-blend-mode:overlay">
<path d="M1611.92 -140L1595.91 -109.468L1548.87 -102.274L1501.73 -91.9317L1488.6 -50.6557L1473.14 -7.27642L1439.13 1.71293L1427.27 45.0387L1414.53 89.0477L1398.64 134.825L1382.14 178.258L1381.09 181.031L1363.25 220.365L1361.22 224.866L1359.5 228.671L1342.99 261.332L1342.64 262.042L1339.31 268.62L1337.97 273.778L1328.94 289.158L1327.57 291.208L1325.19 294.744L1317.9 305.636" stroke="white" stroke-opacity="0.5" stroke-linecap="round" stroke-linejoin="round"/>
</g>
<g style="mix-blend-mode:overlay">
<path d="M505.99 218.422L475.276 230.453L442.71 243.273L408.685 256.965L373.937 271.447L338.96 286.76L304.123 302.85L270.009 319.663L236.631 337.226L204.724 355.379L174.01 374.242L145.352 393.587L118.317 413.642L93.9587 434.059L71.8208 455.186L53.1844 476.554L37.7323 498.539L26.9741 520.51" stroke="white" stroke-opacity="0.5" stroke-linecap="round" stroke-linejoin="round"/>
</g>
<g style="mix-blend-mode:overlay">
<path d="M-0.339844 75.1417L32.2644 74.445L93.7811 75.3694L145.796 78.223L188.308 82.8583L233.789 74.6862L273.625 67.7332L308.411 61.7179L337.133 56.6539L360.388 52.3267L377.007 48.7765L421.181 54.2156L456.475 60.8605L484.385 68.3896L504.607 76.7627L518.537 85.8057L525.87 95.5318L527.912 105.834L524.398 116.779L516.558 128.341L504.189 140.613L488.445 153.594L469.212 167.42L447.544 182.076L423.465 197.71L397.851 214.323L370.943 232.033L333.124 244.305L294.697 257.367L255.724 271.273L216.434 286.09L176.649 301.979L136.864 318.939L96.8005 337.253L57.2441 356.853L45.1285 383.901L36.6793 411.74L6.75189 434.153L-0.339844 440.329" stroke="white" stroke-opacity="0.5" stroke-linecap="round" stroke-linejoin="round"/>
</g>
<g style="mix-blend-mode:overlay">
<path d="M532.467 204.784L502.907 215.756L470.836 227.505L437.28 240.004L402.519 253.294L367.238 267.348L331.805 282.165L296.524 297.719L261.89 313.982L227.839 330.983L195.045 348.627L163.176 367.034L133.058 386.045L104.286 405.886L77.885 426.289L53.4762 447.577L32.3532 469.347L14.3511 491.988L1.04298 514.87L-0.339844 518.741" stroke="white" stroke-opacity="0.5" stroke-linecap="round" stroke-linejoin="round"/>
</g>
<g style="mix-blend-mode:overlay">
<path d="M1754.82 -140L1735.53 -114.68L1694.57 -63.6106L1652.38 -11.8984L1618.66 -17.2036L1580.13 33.6513L1537.6 86.1137L1493.77 138.482L1445.54 191.789L1395.72 244.385L1393.07 258.519L1386.17 275.828L1370.61 297.41L1348.51 322.128L1315.39 350.811L1273.56 382.267L1218.77 416.898L1153.58 453.431L1074.37 491.773L984.195 530.571L880.533 569.194L767.154 606.317L643.017 640.868L512.701 671.761L381.155 683.109L269.286 685.734L175.85 680.443L101.609 669.109L44.4815 652.483L3.47878 632.522L-0.339844 629.306" stroke="white" stroke-opacity="0.5" stroke-linecap="round" stroke-linejoin="round"/>
</g>
<g style="mix-blend-mode:overlay">
<path d="M1353.47 187.18L1353.68 183.242L1352.91 140.05L1348.73 98.948L1342.63 59.0653L1358.03 42.2923L1380.33 26.7251L1407.21 13.5157L1439.13 1.71295L1448.56 -39.6032L1457.68 -80.062L1464.85 -118.351L1469 -140" stroke="white" stroke-opacity="0.5" stroke-linecap="round" stroke-linejoin="round"/>
</g>
<g style="mix-blend-mode:overlay">
<path d="M226.279 426.236L216.904 438.427L215.952 439.78L211.537 446.05L199.028 463.827L195.603 469.601L183.386 490.179L170.217 517.549L168.479 522.854L161.21 545.174L156.326 573.146L157.214 600.449L163.57 627.203L169.164 637.773" stroke="white" stroke-opacity="0.5" stroke-linecap="round" stroke-linejoin="round"/>
</g>
<g style="mix-blend-mode:overlay">
<path d="M347.397 313.366L323.838 330.38L309.629 339.745L290.105 352.271L282.518 357.884L261.395 373.519L253.428 379.882L233.371 395.932L227.256 401.424L207.478 419.162L200.703 426.021L183.678 443.263L178.73 449.238L163.506 467.659L158.127 475.576L146.646 492.497L134.619 516.986L126.868 541.382L124.851 564.693L127.895 587.307L135.089 603.209L138.07 606.853L142.739 612.185L142.789 612.266L148.574 620.063L151.86 625.783L152.291 627.284L152.964 628.034L155.285 629.695" stroke="white" stroke-opacity="0.5" stroke-linecap="round" stroke-linejoin="round"/>
</g>
<g style="mix-blend-mode:overlay">
<path d="M1659.24 -140L1644.08 -114.573L1614.33 -67.4823L1583.96 -19.7088L1550.16 29.9805L1515.4 79.9511L1476.73 131.355L1436.7 182.545L1392.24 234.525L1346.05 285.715L1313.04 318.859L1300.77 332.591L1286.84 346.684L1283.96 348.332L1266.81 363.417L1251.05 376.466" stroke="white" stroke-opacity="0.5" stroke-linecap="round" stroke-linejoin="round"/>
</g>
<g style="mix-blend-mode:overlay">
<path d="M1706.85 -140L1690.06 -115.926L1656.15 -67.6163L1618.66 -17.2035L1583.96 -19.7088L1546.57 -18.2351L1510.06 -14.4572L1487.67 31.7891L1464.52 78.4909L1437.93 126.827L1409.98 175.284L1377.87 224.906L1343.74 274.18L1323.96 299.46L1320.74 303.6L1315.21 312.134L1304.44 325.129L1293.87 337.575L1285.05 348.305L1268 363.658L1251.05 376.466L1228.55 393.453L1202.59 410.816L1164.55 433.966L1125.57 455.146" stroke="white" stroke-opacity="0.5" stroke-linecap="round" stroke-linejoin="round"/>
</g>
<g style="mix-blend-mode:overlay">
<path d="M225.632 653.595L215.901 627.23L210.497 599.619L208.581 572.369L209.697 545.642L212.717 519.853L216.929 495.176L221.293 471.852L224.896 450.002L226.85 429.933L226.888 429.839" stroke="white" stroke-opacity="0.5" stroke-linecap="round" stroke-linejoin="round"/>
</g>
<g style="mix-blend-mode:overlay">
<path d="M552.106 90.7893L525.87 95.5318L496.019 100.69L462.019 106.424L424.657 112.787L383.528 119.941L339.112 127.979L291.119 137.103L239.79 147.445L185.035 159.234L126.804 172.658L65.2873 187.971L0.218355 205.467L-0.339844 205.628" stroke="white" stroke-opacity="0.5" stroke-linecap="round" stroke-linejoin="round"/>
</g>
<g style="mix-blend-mode:overlay">
<path d="M580.384 106.169L554.364 111.246L524.398 116.779L491.477 122.768L482.038 134.879L468.87 147.699L451.933 161.378L432.218 175.913L409.814 191.427L385.583 207.946L359.791 225.563L320.831 237.553L281.021 250.387L240.348 264.159L199.054 278.963L156.947 294.986L114.524 312.254L71.5164 331.077L28.7629 351.414L-0.339844 366.592" stroke="white" stroke-opacity="0.5" stroke-linecap="round" stroke-linejoin="round"/>
</g>
<g style="mix-blend-mode:overlay">
<path d="M269.21 658.043L259.264 632.857L252.07 606.264L247.757 580.099L245.461 554.685L244.408 530.263L243.9 506.965L242.911 485.048L240.894 464.497L236.644 445.581L230.567 430.308L230.085 429.116L229.742 428.245L227.662 425.941L227.002 426.972L227.586 427.99L226.977 429.598L226.558 429.638L225.403 429.946L224.287 433.322L223.539 437.971L219.961 445.085L217.614 450.47L216.536 455.762L218.413 464.403L221.293 471.852L226.431 477.76L223.932 500.722L221.458 524.998L219.898 550.425L220.227 576.737L223.082 603.745L229.527 630.954L238.737 655.055" stroke="white" stroke-opacity="0.5" stroke-linecap="round" stroke-linejoin="round"/>
</g>
<g style="mix-blend-mode:overlay">
<path d="M1215.75 -140L1195.59 -123.482L1179.49 -101.444L1175.09 -79.1912L1182.86 -57.0193L1204.46 -39.7506L1215.67 -30.7881L1234.9 -9.83523L1237.84 -7.26302L1237.87 -7.23622L1251.84 4.78084L1272.49 22.5452L1275.95 25.9212" stroke="white" stroke-opacity="0.5" stroke-linecap="round" stroke-linejoin="round"/>
</g>
<g style="mix-blend-mode:overlay">
<path d="M465.799 464.189L444.067 451.502L441.581 448.595L420.712 441.106L417.895 440.182L408.469 437.489L400.769 435.211" stroke="white" stroke-opacity="0.5" stroke-linecap="round" stroke-linejoin="round"/>
</g>
<g style="mix-blend-mode:overlay">
<path d="M1313.55 70.5465L1310.96 65.1609L1302.31 47.1688L1300.73 25.0504L1281.72 -8.42854L1261.7 -40.3133L1240.4 -69.8402L1218.51 -97.7996L1195.59 -123.482L1179.5 -140" stroke="white" stroke-opacity="0.5" stroke-linecap="round" stroke-linejoin="round"/>
</g>
<g style="mix-blend-mode:overlay">
<path d="M582.033 184.903L558.804 195.62L533.38 208.24L507.158 221.423L480.161 235.249L451.908 248.525L423.122 263.57L395.707 279.927L369.078 296.875L343.375 314.331L319.233 332.162L296.524 350.288L276.023 368.454L266.152 376.841L249.863 390.72L233.409 409.73L227.56 417.621L225.264 421.882L220.519 428.768L207.909 446.492L199.028 463.827L193.218 479.957L189.754 494.989L189.184 508.439L190.833 520.429L195.057 530.598L201.274 539.078L209.698 545.643L219.898 550.425L231.899 553.413L245.461 554.686L260.431 554.391L276.746 552.609L294.05 549.621L312.42 545.428L331.285 540.445L350.797 534.63L370.194 528.414L389.668 521.729L408.254 515.017L426.192 508.144L442.317 501.54L456.868 495.042L468.591 489.04L477.661 483.4L482.825 478.43L483.459 473.393L480.376 470.646" stroke="white" stroke-opacity="0.5" stroke-linecap="round" stroke-linejoin="round"/>
</g>
<g style="mix-blend-mode:overlay">
<path d="M253.39 656.489L243.888 632.87L237.062 605.875L233.256 579.309L231.899 553.413L232.076 528.441L232.939 504.648L233.751 482.128L233.447 461.108L231.404 441.588L227.37 428.861L226.786 428.928L226.761 429.397L226.368 430.214L225.936 431.795L225.035 433.322L222.739 434.836L218.223 438.132L208.467 454.222L205.003 460.063L193.218 479.957L190.135 486.12L179.707 506.898L177.931 511.748L169.596 534.416L163.024 562.549L161.628 590.402L165.269 618.04L173.807 640.158" stroke="white" stroke-opacity="0.5" stroke-linecap="round" stroke-linejoin="round"/>
</g>
<g style="mix-blend-mode:overlay">
<path d="M1920 -27.2512L1905.61 -47.8289L1881.84 -70.0813L1851.02 -87.1088L1816.77 -100.506L1777.11 -109.147L1731.48 -56.6441L1694.57 -63.6106L1656.15 -67.6162L1614.33 -67.4823L1572.67 -64.8967L1529.64 -58.7341L1488.6 -50.6557L1448.56 -39.6032L1412.63 -27.1441L1380.27 -12.3136L1354.17 3.56176L1334.1 21.3931L1322.05 40.189L1317.87 60.9275L1322.68 82.9387L1327.44 93.1472L1333.07 105.258L1340.42 121.026L1345.87 138.282L1350.78 158.873L1350.82 159.074L1353.47 187.18L1352.46 212.42L1352.08 215.153L1347.38 239.013L1346.76 242.215L1345.99 244.921L1339.11 264.722L1334.46 276.967L1331.31 282.62L1329.43 286.345L1317.9 305.636L1310.49 316.689L1304.81 323.963L1302.21 328.424L1293.87 337.575L1288.89 342.706L1283.96 348.332L1274.11 357.375L1267.39 363.551L1245.76 381.932L1222.55 397.981L1214.19 403.755L1197.23 414.406L1175.44 428.526L1155.79 439.298L1125.57 455.146L1121.01 457.383L1067.05 483.883L1061.23 486.374L996.424 514.106L990.322 516.451L916.753 544.651L901.593 549.675L825.525 574.888L785.626 586.476L726.392 603.678L690.096 611.422L610.108 628.476L595.227 631.249L539.318 641.685L532.924 642.878L515.619 646.254L514.211 646.629L505.064 647.004L496.082 647.017L484.22 648.478L482.038 648.571L470.481 649.643L455.092 652.242L443.395 655.578L394.946 663.656L300.951 666.912L221.775 663.429L158 654.841L107.901 641.632L70.7044 625.462L44.8113 606.518L28.7503 586.302L-0.339844 567.265" stroke="white" stroke-opacity="0.5" stroke-linecap="round" stroke-linejoin="round"/>
</g>
<g style="mix-blend-mode:overlay">
<path d="M281.858 364.744L263.869 381.784L254.227 391.524L253.479 392.261" stroke="white" stroke-opacity="0.5" stroke-linecap="round" stroke-linejoin="round"/>
</g>
<g style="mix-blend-mode:overlay">
<path d="M1664.06 112.666L1659.67 88.1233L1646.75 68.6709L1629.52 52.7821L1605.97 41.6359L1580.13 33.6513L1550.16 29.9805L1519.84 28.9757L1487.67 31.7891L1457.17 36.7862L1427.27 45.0387L1401.12 55.0596L1378.08 67.8537L1360.74 82.1482L1348.73 98.948L1343.88 117.302L1345.87 138.281" stroke="white" stroke-opacity="0.5" stroke-linecap="round" stroke-linejoin="round"/>
</g>
<g style="mix-blend-mode:overlay">
<path d="M1288.61 36.3574L1280.25 13.1539L1256.52 -18.3959L1231.81 -48.2175L1205.98 -75.6678L1179.49 -101.444L1152.09 -124.955L1132.75 -140" stroke="white" stroke-opacity="0.5" stroke-linecap="round" stroke-linejoin="round"/>
</g>
<g style="mix-blend-mode:overlay">
<path d="M471.255 465.02L484.169 473.982L485.654 475.148L496.983 484.794L498.772 489.014L496.234 493.984L489.358 499.718L479.374 505.934L466.193 512.726L451.02 519.76L433.715 527.182L415.396 534.603L395.884 542.146L376.169 549.394L356.061 556.414L336.359 562.791L316.898 568.538L298.249 573.267L280.336 576.938L263.488 579.256L247.757 580.1L233.256 579.309L220.227 576.737L208.581 572.369L198.762 566.019L190.553 557.847L184.578 547.652L180.48 535.782L179.021 522.037L179.707 506.899L183.386 490.179L189.412 472.455L198.597 453.592L210.167 434.167L224.832 414.085L228.207 410.588L241.731 393.882L261.395 373.519L282.962 353.383L306.736 333.502L330.726 319.06L338.072 314.639L360.134 303.077L361.504 303.332L372.541 296.62L374.127 295.87L399.157 280.236L407.962 275.078L409.383 274.287L425.862 264.695L452.961 249.677L480.3 234.592L506.726 219.507L532.467 204.784L558.055 191.762L581.754 179.424L603.917 167.634L623.239 156.434L640.302 145.677L653.585 135.401L663.835 125.487L669.329 115.976L670.94 106.758L666.829 97.9031L665.852 93.6295" stroke="white" stroke-opacity="0.5" stroke-linecap="round" stroke-linejoin="round"/>
</g>
<g style="mix-blend-mode:overlay">
<path d="M604.374 173.542L583.035 182.384L558.056 191.762L529.448 201.823L498.556 212.501L465.47 223.928L431.178 236.039L395.846 248.9L360.083 262.471L324.155 276.793L288.316 291.824L252.946 307.579L217.969 324.111L183.957 341.339L150.591 359.438L118.659 378.274L87.7678 398.129L58.9568 418.72L31.9346 440.45L8.04592 462.903L-0.339844 472.401" stroke="white" stroke-opacity="0.5" stroke-linecap="round" stroke-linejoin="round"/>
</g>
<g style="mix-blend-mode:overlay">
<path d="M362.1 658.445L354.31 636.273L347.193 610.846L341.345 586.356L336.359 562.791L331.284 540.445L325.893 519.197L319.042 499.37L310.682 480.788L299.479 463.801L285.537 448.193L267.357 434.408L245.105 422.243L233.484 418.063" stroke="white" stroke-opacity="0.5" stroke-linecap="round" stroke-linejoin="round"/>
</g>
<g style="mix-blend-mode:overlay">
<path d="M-0.339844 113.886L21.9249 115.922L56.2926 121.696L83.1499 129.038L142.979 116.565L198.495 105.713L249.394 96.3356L269.121 104.896L282.163 114.596L289.394 125.327L291.119 137.103L288.049 149.91L280.628 163.803L269.438 178.807L255.09 194.964L205.206 207.731L189.158 225.911L138.057 241.023L85.2305 257.822L30.3614 276.659L-0.339844 288.126" stroke="white" stroke-opacity="0.5" stroke-linecap="round" stroke-linejoin="round"/>
</g>
<g style="mix-blend-mode:overlay">
<path d="M515.695 644.15L516.837 638.778L518.195 630.941L521.328 606.907L523.624 583.703L523.827 562.054L526.225 555.047" stroke="white" stroke-opacity="0.5" stroke-linecap="round" stroke-linejoin="round"/>
</g>
<g style="mix-blend-mode:overlay">
<path d="M515.86 644.124L516.837 638.778L518.499 630.392L520.06 622.487" stroke="white" stroke-opacity="0.5" stroke-linecap="round" stroke-linejoin="round"/>
</g>
<g style="mix-blend-mode:overlay">
<path d="M226.431 477.76L228.131 456.245L227.979 436.364L226.888 429.839" stroke="white" stroke-opacity="0.5" stroke-linecap="round" stroke-linejoin="round"/>
</g>
<g style="mix-blend-mode:overlay">
<path d="M636.534 155.47L624.152 162.731L605.325 170.796L584.088 182.987L578.252 187.033L576.705 187.797L559.35 195.393L533.127 206.016L506.726 219.507L478.562 232.797L451.908 248.525L425.596 264.481L424.251 265.271L417.147 269.438L399.157 280.235L378.212 293.19L373.34 296.245L348.767 312.469L347.397 313.366L335.382 321.391L319.233 332.162L309.629 339.745L296.524 350.288L288.468 357.402L276.022 368.454L257.399 386.607L252.514 392.261L241.452 404.398L236.047 411.311L235.375 412.638L233.523 416.067L233.421 418.05L232.33 419.725L231.607 420.796L231.556 421.145L237.811 422.149L245.105 422.243L252.197 421.881L259.619 420.863L265.949 419.698L296.321 429.236L321.034 440.811L341.7 453.94L357.977 468.811L372.998 464.109L386.344 459.527L398.396 454.892L407.784 450.631L414.813 446.599L419.075 442.191L417.895 440.275L412.821 438.279L400.769 435.211L389.363 432.385L384.961 431.233L356.302 425.579L347.752 423.904L339.835 422.203L326.045 420.019L318.091 419.577L315.972 422.498L311.354 424.628L304.301 427.039L296.321 429.236L286.869 431.407L277.393 433.081L252.197 421.881L234.322 416.322L233.066 417.916L233.003 418.532L231.277 419.256L227.712 421.814L227.624 421.962L226.406 423.824L218.223 438.132L208.467 454.222L202.999 468.811L199.904 482.195L199.624 494.024L201.616 504.353L206.12 512.941L212.717 519.853L221.458 524.998L232.076 528.441L244.408 530.263L258.388 530.517L273.637 529.419L290.244 526.994L307.586 523.604L325.893 519.197L344.326 514.227L363.179 508.587L381.434 502.759L399.386 496.61L415.878 490.581L431.203 484.526L444.093 478.859L454.775 473.42L461.955 468.556L466.611 463.251L471.255 465.02L480.376 470.646L484.144 474.076L499.076 488.424L506.65 497.052L509.276 500.388L510.456 504.46L518.169 517.241L517.345 522.854L512.511 529.178L503.719 536.265L492.137 543.82L477.75 551.952L461.664 560.339L443.826 569.087L425.203 577.822L405.729 586.637L386.179 595.131L366.49 603.33L347.194 610.845L328.253 617.651L309.946 623.412L292.299 628.007L275.363 631.222L259.264 632.857L243.888 632.87L229.526 630.954L215.901 627.23L203.57 621.362L192.139 613.632L182.396 603.665L173.909 591.916L167.616 578.01L163.024 562.549L161.21 545.174L161.514 526.592L165.041 506.523L170.991 485.678L180.379 463.854L192.266 441.722L207.477 419.162L225.01 396.735L245.448 374.376L267.814 352.499L299.67 332.819L331.932 314.143L364.282 296.486L395.707 279.927L424.353 264.025L451.908 248.525L479.437 233.695L506.726 219.507L533.38 208.24L545.204 203.23L554.592 198.661L558.855 196.531L575.69 188.185L582.033 184.903L599.325 176.315L604.374 173.542L617.593 166.308L624.152 162.731L638.348 155.068L642.954 150.419L656.236 139.099L667.185 129.332L673.541 119.954L676.205 110.858L676.218 105.981L673.312 102.11L669.291 97.2198L665.853 93.6294L663.087 92.0351L657.962 89.2352L651.872 85.5644L647.064 83.5281L642.332 81.2372L640.01 80.3932L633.185 77.9281L628.466 76.4411L620.955 73.534L611.529 71.0421L604.983 69.0326L588.858 65.4556L586.321 64.8929L584.101 64.4374L583.238 64.2633L573.482 62.0528L557.891 59.5475L526.352 55.073L490.132 50.0357L484.119 49.2721L474.769 47.9592L441.581 45.6817L392.611 42.3191L386.813 41.9306L374.926 41.1937L372.82 41.1401L330.663 40.9794L324.168 44.6501L309.946 47.9726L289.521 52.0586L262.258 57.0691L229.387 62.9638L190.211 70.024L145.796 78.2229L95.4558 87.8687L40.0666 99.0015L-0.339844 107.589" stroke="white" stroke-opacity="0.5" stroke-linecap="round" stroke-linejoin="round"/>
</g>
<g style="mix-blend-mode:overlay">
<path d="M1583.8 126.104L1572.86 108.982L1558.12 95.2638L1537.6 86.1136L1515.4 79.951L1489.78 77.9415L1464.52 78.4908L1438.29 82.6974L1414.53 89.0476L1392.32 98.5594L1374.57 109.893L1360.69 124.094L1352.91 140.05L1350.8 158.819" stroke="white" stroke-opacity="0.5" stroke-linecap="round" stroke-linejoin="round"/>
</g>
<g style="mix-blend-mode:overlay">
<path d="M1333.28 98.3987L1333.87 78.0354L1322.05 40.189L1308.11 4.67367L1293.14 -29.4082L1276.72 -61.1723L1259.76 -91.4762L1241.65 -119.503L1227.36 -140" stroke="white" stroke-opacity="0.5" stroke-linecap="round" stroke-linejoin="round"/>
</g>
<g style="mix-blend-mode:overlay">
<path d="M505.47 645.852L506.866 625.877L515.543 616.03L517.307 592.197L517.84 569.757L523.828 562.054L522.026 541.731L523.536 535.501" stroke="white" stroke-opacity="0.5" stroke-linecap="round" stroke-linejoin="round"/>
</g>
<g style="mix-blend-mode:overlay">
<path d="M1920 129.453L1903.44 139.166L1866.7 193.865L1815.12 254.044L1744.13 320.279L1654.4 391.417L1541.83 467.404L1407.95 546.674L1250 628.396L1071.27 710.599L871.069 791.838L654.942 870.184L424.15 944.135L184.959 944.322L-0.339844 930.43" stroke="white" stroke-opacity="0.5" stroke-linecap="round" stroke-linejoin="round"/>
</g>
<g style="mix-blend-mode:overlay">
<path d="M420.09 655.109L415.447 635.844L410.398 610.631L405.729 586.637L401.225 563.715L395.884 542.146L389.668 521.729L381.434 502.759L371.298 485.008L357.977 468.811" stroke="white" stroke-opacity="0.5" stroke-linecap="round" stroke-linejoin="round"/>
</g>
<g style="mix-blend-mode:overlay">
<path d="M1920 -60.1542L1905.61 -47.829L1830.09 14.2792L1747.78 77.888L1746.72 109.143L1734.22 145.891L1711.95 187.1L1675.29 233.775L1625.67 284.817L1558.52 340.79L1475.41 400.406L1428.75 429.009L1372.32 463.6L1251.52 528.762L1110.31 595.131L952.389 660.829L776.973 724.532L589.556 784.483L391.165 839.25L188.435 887.814L-0.339844 925.875" stroke="white" stroke-opacity="0.5" stroke-linecap="round" stroke-linejoin="round"/>
</g>
<g style="mix-blend-mode:overlay">
<path d="M1372.52 -140L1374.85 -120.789L1377.34 -86.1175L1379.66 -50.3074L1380.27 -12.3137L1380.33 26.725L1378.08 67.8537L1374.57 109.893L1367.9 153.889L1359.04 198.595L1351.58 225.094L1350.47 229.046L1346.55 243.3L1345.99 244.921" stroke="white" stroke-opacity="0.5" stroke-linecap="round" stroke-linejoin="round"/>
</g>
<g style="mix-blend-mode:overlay">
<path d="M518.169 517.241L523.536 535.501L526.225 555.047L526.124 576.054L523.624 583.703L517.307 592.197L508.299 601.253L506.866 625.877L496.387 636.099L496.095 646.87" stroke="white" stroke-opacity="0.5" stroke-linecap="round" stroke-linejoin="round"/>
</g>
<g style="mix-blend-mode:overlay">
<path d="M470.481 649.643L468.882 631.249L467.017 606.237L464.632 582.672L461.664 560.339L457.097 539.453L451.02 519.76L442.317 501.54L431.203 484.526L416.462 469.052L398.396 454.892L375.687 442.419L348.691 431.46L315.972 422.498L277.9 415.438L277.177 414.513L273.866 413.924L262.867 413.415L242.378 411.834L238.141 411.405" stroke="white" stroke-opacity="0.5" stroke-linecap="round" stroke-linejoin="round"/>
</g>
<g style="mix-blend-mode:overlay">
<path d="M651.009 145.971L641.888 152.335L624.939 159.797L603.917 167.634L578.57 175.994L550.482 184.822L525.071 198.313L498.556 212.5L470.836 227.505L442.71 243.273L414.305 259.872L380.255 274.743L345.798 290.511L318.408 310.432L285.081 328.317L252.527 347.033L229.603 370.276L200.576 390.961L182.561 415.973L158.85 438.266L147.293 464.551L138.856 491.05L134.619 516.986L133.541 542.641L136.547 567.104L142.358 590.804L151.631 612.734L162.948 633.513L164.242 635.241" stroke="white" stroke-opacity="0.5" stroke-linecap="round" stroke-linejoin="round"/>
</g>
<g style="mix-blend-mode:overlay">
<path d="M342.766 659.41L336.334 643.373L328.253 617.651L322.036 592.612L316.898 568.538L312.42 545.428L307.586 523.605L302.182 502.92L294.976 483.722L285.892 465.837L273.574 449.64L258.058 434.93L238.496 422.578L237.811 422.15L232.33 419.725" stroke="white" stroke-opacity="0.5" stroke-linecap="round" stroke-linejoin="round"/>
</g>
<g style="mix-blend-mode:overlay">
<path d="M1514.44 164.754L1505.74 150.004L1493.77 138.482L1476.73 131.355L1458.63 127.095L1437.93 126.827L1418.31 129.051L1398.64 134.825L1382.09 142.756L1367.9 153.889L1358.61 167.031L1353.68 183.242" stroke="white" stroke-opacity="0.5" stroke-linecap="round" stroke-linejoin="round"/>
</g>
<g style="mix-blend-mode:overlay">
<path d="M1341.24 -140L1326.29 -133.328L1288.47 -112.389L1259.76 -91.4762L1240.4 -69.8402L1231.81 -48.2175L1234.04 -25.6972L1253.4 -5.13291L1262.05 4.0708L1279.42 25.1844L1288.61 36.3574L1302.94 56.0644L1303.41 56.6538" stroke="white" stroke-opacity="0.5" stroke-linecap="round" stroke-linejoin="round"/>
</g>
<g style="mix-blend-mode:overlay">
<path d="M357.977 468.811L342.589 473.152L326.426 477.305L310.682 480.788L294.976 483.722L280.311 485.678L266.381 486.723L253.973 486.495L242.911 485.048L233.751 482.127L226.431 477.76" stroke="white" stroke-opacity="0.5" stroke-linecap="round" stroke-linejoin="round"/>
</g>
<g style="mix-blend-mode:overlay">
<path d="M226 430.75L223.716 433.122L222.739 434.836L220.925 440.249L217.411 446.987L212.146 457.062L210.903 457.115L202.999 468.811L197.024 480.6L189.755 494.989L187.966 499.503L179.022 522.037L171.105 549.97L167.617 578.01L168.606 606.183L175.558 633.446L179.72 642.101" stroke="white" stroke-opacity="0.5" stroke-linecap="round" stroke-linejoin="round"/>
</g>
<g style="mix-blend-mode:overlay">
<path d="M124.977 186.926L126.804 172.658L124.216 159.73L116.439 148.128L102.953 137.893L39.2547 152.308L-0.339844 161.981" stroke="white" stroke-opacity="0.5" stroke-linecap="round" stroke-linejoin="round"/>
</g>
<g style="mix-blend-mode:overlay">
<path d="M1451.75 204.141L1445.54 191.789L1436.7 182.545L1423.53 177.521L1409.98 175.284L1394.67 176.918L1381.09 181.031L1368.25 188.667L1359.04 198.594L1352.72 211.844" stroke="white" stroke-opacity="0.5" stroke-linecap="round" stroke-linejoin="round"/>
</g>
<g style="mix-blend-mode:overlay">
<path d="M401.301 656.489L397.914 645.235L391.469 619.728L386.179 595.131L381.155 571.74L376.169 549.394L370.194 528.414L363.178 508.586L353.943 490.246L342.588 473.152L327.745 457.691L309.679 443.625L286.869 431.407L259.619 420.863L235.705 414.888" stroke="white" stroke-opacity="0.5" stroke-linecap="round" stroke-linejoin="round"/>
</g>
<g style="mix-blend-mode:overlay">
<path d="M323.483 659.731L318.89 649.456L309.946 623.412L303.26 597.971L298.249 573.267L294.05 549.621L290.244 526.994L285.74 505.72L280.31 485.678L272.673 467.19L262.714 450.109L249.546 435.412L249.013 434.81L234.017 423.074L233.7 422.833L231.531 421.547L229.679 422.927L241.338 433.644L242.086 434.729L252.502 449.761L260.786 467.418L266.381 486.723L270.555 507.354L273.637 529.419L276.746 552.609L280.336 576.938L285.309 602.124L292.299 628.007L301.966 654.319L304.389 659.209" stroke="white" stroke-opacity="0.5" stroke-linecap="round" stroke-linejoin="round"/>
</g>
<g style="mix-blend-mode:overlay">
<path d="M381.155 108.875L383.528 119.941L380.99 131.851L373.708 144.699L362.506 158.457L317.266 168.076L302.563 183.523L285.043 200.122L265.29 217.913L219.187 231.002L171.245 245.457L121.806 261.413L70.5903 279.164L18.3347 298.79L-0.339844 306.413" stroke="white" stroke-opacity="0.5" stroke-linecap="round" stroke-linejoin="round"/>
</g>
<g style="mix-blend-mode:overlay">
<path d="M552.106 90.7893L555.709 100.77L554.364 111.246L547.754 122.366L537.174 134.035L522.33 146.427L504.443 159.489L483.358 173.395L460.116 188.118L434.73 203.806L408.089 220.458L380.369 238.169L343.413 250.829L306.077 264.226L268.423 278.414L230.77 293.405L192.951 309.347L155.463 326.214L117.987 344.246L81.3103 363.364L45.1285 383.901L10.5578 405.671L-0.339844 413.361" stroke="white" stroke-opacity="0.5" stroke-linecap="round" stroke-linejoin="round"/>
</g>
<g style="mix-blend-mode:overlay">
<path d="M1395.72 244.385L1392.24 234.525L1386.81 227.679L1377.87 224.906L1369.17 224.879L1359.5 228.671L1352.08 235.007L1346.33 244.372" stroke="white" stroke-opacity="0.5" stroke-linecap="round" stroke-linejoin="round"/>
</g>
<g style="mix-blend-mode:overlay">
<path d="M580.384 106.169L580.016 96.0408L573.622 86.4754L561.659 77.4056L542.629 68.979L516.989 61.1819L503.212 64.5982L473.043 57.2968L434.388 51.0002L387.549 45.829L330.714 41.2741L321.871 39.5325L259.403 39.1841L246.285 39.1038L225.962 39.6262L177.081 40.2827L96.8132 44.8912L3.41535 50.9467L1.74074 51.027L-0.339844 51.6835" stroke="white" stroke-opacity="0.5" stroke-linecap="round" stroke-linejoin="round"/>
</g>
<g style="mix-blend-mode:overlay">
<path d="M454.965 651.331L453.57 641.591L450.296 616.177L447.366 591.942L443.826 569.087L439.614 547.424L433.715 527.182L426.192 508.144L415.878 490.581L403.039 474.264L386.344 459.527L366.147 446.157L341.015 434.582L311.354 424.628L275.591 416.817L244.864 412.584" stroke="white" stroke-opacity="0.5" stroke-linecap="round" stroke-linejoin="round"/>
</g>
<g style="mix-blend-mode:overlay">
<path d="M187.255 41.9441L179.491 44.5029L96.8132 44.8914L81.2342 44.4359L70.235 45.2129L-0.339844 49.6339" stroke="white" stroke-opacity="0.5" stroke-linecap="round" stroke-linejoin="round"/>
</g>
<g style="mix-blend-mode:overlay">
<path d="M1516.94 -140L1514.73 -132.324L1501.73 -91.9317L1457.68 -80.062L1416 -65.7005L1379.66 -50.3074L1348.36 -32.9851L1324.52 -14.9663L1308.11 4.67368L1300.73 25.0504L1317.87 60.9275L1333.28 98.3987L1340.42 121.026" stroke="white" stroke-opacity="0.5" stroke-linecap="round" stroke-linejoin="round"/>
</g>
<g style="mix-blend-mode:overlay">
<path d="M678.133 114.596L673.541 119.954L663.835 125.487L648.371 131.315L629.112 137.357L605.452 143.774L579.014 150.486L559.235 162.865L537.237 175.887L504.633 184.635L479.31 199.318L444.182 209.58L416.804 226.192L380.369 238.169L352.255 256.925L324.155 276.793L296.524 297.719L270.009 319.663L244.75 342.625L213.465 361.367L192.317 386.42L165.51 406.85L150.198 433.644L129.646 455.307L121.945 483.213L109.538 505.412L111.022 533.532L117.517 560.687L120.486 582.457L128.999 595.426L134.099 603.182L135.304 605.018L137.283 608.046L144.59 618.2L150.223 624.805L151.796 626.654L153.991 629.119L154.892 630.7L156.198 631.597" stroke="white" stroke-opacity="0.5" stroke-linecap="round" stroke-linejoin="round"/>
</g>
<g style="mix-blend-mode:overlay">
<path d="M666.829 97.903L662.389 102.324L651.77 106.986L636.914 111.809L617.111 116.913L608.459 127.564L595.265 138.777L579.013 150.486L549.302 157.667L517.56 165.249L494.978 179.169L460.116 188.118L423.464 197.71L385.583 207.946L346.318 218.944L320.831 237.553L294.697 257.367L268.423 278.413L242.758 300.652L217.969 324.11L195.044 348.627L174.01 374.242L156.008 400.62L130.343 421.051L119.395 448.916L100.682 470.405L98.7032 498.941L89.0234 520.657L97.6756 548.777L99.0584 569.556L106.417 588.861L119.547 607.201L140.657 622.595L153.991 629.119L155.221 629.226L156.071 629.467L156.909 630.686L157.594 631.812L160.905 633.928" stroke="white" stroke-opacity="0.5" stroke-linecap="round" stroke-linejoin="round"/>
</g>
<g style="mix-blend-mode:overlay">
<path d="M673.312 102.11L670.94 106.758L662.085 111.648L648.776 116.699L630.318 122.018L620.054 132.628L605.452 143.774L588.034 155.403L559.235 162.865L528.344 170.742L494.978 179.169L470.544 193.906L434.73 203.806L397.851 214.323L359.791 225.563L333.124 244.305L306.077 264.226L279.105 285.326L252.946 307.579L227.839 330.983L204.724 355.379L183.576 380.78L156.008 400.621L140.823 427.816L119.395 448.917L112.05 477.278L98.7034 498.941L101 527.543L97.6758 548.777L107.14 568.404L110.997 576.402L121.691 591.339L128.542 600.905L129.646 602.432L139.782 613.578L144.324 617.557L148.168 620.304L151.505 622.956L156.072 629.467L156.693 631.155L157.835 632.187L158.977 632.468L160.043 633.098" stroke="white" stroke-opacity="0.5" stroke-linecap="round" stroke-linejoin="round"/>
</g>
<g style="mix-blend-mode:overlay">
<path d="M487.493 51.6434L483.205 54.2558L473.044 57.2969L456.475 60.8605L434.73 64.9064L407.264 69.5953L375.117 74.9273L337.755 81.1033L309.781 73.7886L273.625 67.7332L229.387 62.9639L175.482 59.9093L111.999 58.6768L75.1447 65.9112L32.2644 74.445L-0.339844 81.1167" stroke="white" stroke-opacity="0.5" stroke-linecap="round" stroke-linejoin="round"/>
</g>
<g style="mix-blend-mode:overlay">
<path d="M1425 -140L1420.72 -138.567L1374.87 -120.802L1374.85 -120.789L1334.27 -101.47L1301.51 -81.8572L1276.72 -61.1723L1261.7 -40.3133L1256.52 -18.3959L1262.05 4.07081L1276.45 26.149L1278.11 28.0915L1290.8 42.4263L1302.94 56.0644L1303.41 56.6539L1314.49 70.3857L1322.68 82.9387" stroke="white" stroke-opacity="0.5" stroke-linecap="round" stroke-linejoin="round"/>
</g>
<g style="mix-blend-mode:overlay">
<path d="M509.91 645.128L512.486 641.511L515.543 616.03L521.328 606.907L524.094 598.453L526.124 576.054" stroke="white" stroke-opacity="0.5" stroke-linecap="round" stroke-linejoin="round"/>
</g>
<g style="mix-blend-mode:overlay">
<path d="M657.936 89.3557L656.769 93.4016L650.426 97.6216L638.183 102.056L621.805 106.678L600.644 111.595L576.159 116.779L566.923 127.966L554.047 139.715L537.174 152.147L517.56 165.249L483.357 173.395L447.544 182.076L409.814 191.427L370.638 201.475L329.864 212.353L305.899 230.761L281.021 250.387L255.724 271.273L230.77 293.405L206.526 316.809L183.957 341.339L163.176 367.034L145.352 393.587L130.343 421.051L107.647 441.722L100.682 470.405L85.9535 491.72L89.0236 520.657L84.3677 541.65L95.481 562.764L99.0586 569.556L112.138 586.436L119.458 595.894L132.83 609.385L139.287 615.896L141.837 618.106L144.92 619.768L148.65 624.162L151.568 627.484L153.864 630.994L160.804 635.174" stroke="white" stroke-opacity="0.5" stroke-linecap="round" stroke-linejoin="round"/>
</g>
<g style="mix-blend-mode:overlay">
<path d="M587.298 67.2776L584.646 70.3589L575.601 73.7483L561.659 77.4057L542.21 81.4382L526.377 72.6498L503.212 64.5982L484.385 68.3895L459.938 72.7168L431 77.5665L397.001 83.1262L358.827 89.4094L337.755 81.1032L296.004 88.15L249.394 96.3356L222.828 88.9137L188.308 82.8582L138.019 92.2763L82.3633 103.275L21.9249 115.922L-0.339844 120.906" stroke="white" stroke-opacity="0.5" stroke-linecap="round" stroke-linejoin="round"/>
</g>
<g style="mix-blend-mode:overlay">
<path d="M610.375 72.0067L609.893 75.222L602.89 78.732L591.015 82.4429L573.622 86.4754L552.106 90.7892L542.21 81.4382L518.537 85.8056L490.081 90.6687L457.82 96.0408L421.27 102.096L381.155 108.875L372.934 98.7202L358.827 89.4094L315.985 96.6437L269.121 104.896L217.842 114.421L162.516 125.327L102.953 137.893L83.1499 129.038L18.8294 143.412L-0.339844 148.021" stroke="white" stroke-opacity="0.5" stroke-linecap="round" stroke-linejoin="round"/>
</g>
<g style="mix-blend-mode:overlay">
<path d="M666.791 133.459L664.787 135.87L656.718 142.1L642.408 149.2L623.239 156.434L600.454 164.004L573.723 172.082L550.482 184.822L519.476 194.267L486.77 204.261L459.304 219.721L431.178 236.039L402.519 253.294L373.937 271.447L345.798 290.511L311.367 307.11L277.659 324.486L252.527 347.033L221.661 366.378L200.576 390.961L174.239 412.035L158.85 438.266L138.818 460.612L130.737 487.888L127.083 514.722L119.509 538.247L117.518 560.687L123.797 576.79L127.895 587.307L134.568 598.48L138.996 604.629L142.738 612.145L142.789 612.266L148.244 620.505L154.346 628.57" stroke="white" stroke-opacity="0.5" stroke-linecap="round" stroke-linejoin="round"/>
</g>
<g style="mix-blend-mode:overlay">
<path d="M482.216 648.37L484.182 646.749L483.548 620.907L482.457 596.578L480.846 573.535L477.75 551.952L473.208 531.616L466.193 512.726L456.868 495.042L444.093 478.859L428.146 463.948L407.784 450.631L383.363 438.762L353.511 428.741L318.611 420.488L317.672 418.854L313.854 418.077L297.856 417.099L278.991 414.781L277.532 414.982L275.591 416.817L271.785 418.184L265.949 419.698L236.72 413.455" stroke="white" stroke-opacity="0.5" stroke-linecap="round" stroke-linejoin="round"/>
</g>
<g style="mix-blend-mode:overlay">
<path d="M-0.339844 67.224L1.85491 67.1168L75.1447 65.9111L137.917 66.9426L190.211 70.0239L233.789 74.6861L268.601 80.8219L296.004 88.15L315.985 96.6437L329.636 106.115L337.044 116.592L339.112 127.979L336.055 140.358L328.659 153.688L317.266 168.076L269.438 178.807L218.997 190.824L165.828 204.342L110.197 219.547L51.8397 236.749L41.9949 255.92L30.3614 276.658L18.3347 298.79L6.13026 322.463L-0.339844 325.397" stroke="white" stroke-opacity="0.5" stroke-linecap="round" stroke-linejoin="round"/>
</g>
<g style="mix-blend-mode:overlay">
<path d="M213.465 650.996L212.4 649.027L203.57 621.362L199.104 593.657L198.762 566.019L201.274 539.078L206.12 512.94L212.083 488.022L218.413 464.403L224.021 442.312L225.987 432.157" stroke="white" stroke-opacity="0.5" stroke-linecap="round" stroke-linejoin="round"/>
</g>
<g style="mix-blend-mode:overlay">
<path d="M1420.79 -140L1420.72 -138.567L1419.19 -103.252L1416 -65.7005L1412.63 -27.1441L1407.21 13.5157L1401.12 55.0596L1392.32 98.5595L1382.09 142.756L1369.5 184.554L1368.25 188.667L1353.47 231.029L1352.08 235.007L1344.97 251.312L1342.78 256.322L1339.11 264.722" stroke="white" stroke-opacity="0.5" stroke-linecap="round" stroke-linejoin="round"/>
</g>
<g style="mix-blend-mode:overlay">
<path d="M484.245 648.156L484.182 646.749L496.386 636.099L496.704 610.939L508.299 601.253L508.401 578.224L507.183 556.508L503.719 536.265L498.112 517.268L489.358 499.718L477.661 483.4L461.955 468.557L442.494 455.052L418.111 443.183" stroke="white" stroke-opacity="0.5" stroke-linecap="round" stroke-linejoin="round"/>
</g>
<g style="mix-blend-mode:overlay">
<path d="M437.927 653.166L437.661 651.961L433.106 626.038L429.021 601.374L425.203 577.822L420.674 555.637L415.396 534.603L408.254 515.017L399.386 496.61L387.549 479.729L372.998 464.109L354.349 450.149L331.957 437.636L304.301 427.039L271.785 418.184L237.417 412.45" stroke="white" stroke-opacity="0.5" stroke-linecap="round" stroke-linejoin="round"/>
</g>
<g style="mix-blend-mode:overlay">
<path d="M286.21 658.726L285.689 657.748L275.363 631.222L268.22 604.951L263.488 579.255L260.431 554.391L258.388 530.517L256.409 507.877L253.973 486.495L249.939 466.627L243.926 448.22L235.261 432.706L234.614 431.567L228.905 424.896L229.197 423.864L229.717 422.967L231.252 420.93L231.772 420.515" stroke="white" stroke-opacity="0.5" stroke-linecap="round" stroke-linejoin="round"/>
</g>
<g style="mix-blend-mode:overlay">
<path d="M-0.339844 53.4252L1.80416 53.3314L84.9767 49.4865L164.483 48.0664L231.937 49.1248L289.521 52.0587L337.133 56.6538L376.449 62.5351L407.264 69.5953L431 77.5665L447.429 86.4353L457.82 96.0409L462.019 106.424L461.131 117.503L455.117 129.359L444.994 141.966L430.785 155.443L413.442 169.791L393.131 185.131L370.638 201.475L346.318 218.945L305.899 230.761L264.351 243.501L221.623 257.313L177.981 272.291L133.173 288.649L87.7804 306.453L41.5129 326.04L-0.339844 345.358" stroke="white" stroke-opacity="0.5" stroke-linecap="round" stroke-linejoin="round"/>
</g>
<g style="mix-blend-mode:overlay">
<path d="M124.977 186.926L68.8522 201.569L64.2216 202.774L0.598953 220.767L-0.339844 221.048" stroke="white" stroke-opacity="0.5" stroke-linecap="round" stroke-linejoin="round"/>
</g>
<g style="mix-blend-mode:overlay">
<path d="M193.966 646.843L183.348 644.07L179.783 642.248L173.871 640.185L173.808 640.158L172.171 639.609L169.367 638.47L164.293 636.38L163.164 636.126L161.946 635.067L161.147 634.692L160.969 633.754L160.5 633.245L160.043 633.098L158.838 632.24L157.95 631.624L154.892 630.7L139.567 623.372L124.546 614.181L102.142 600.463L90.2798 581.801L84.3172 575.116L66.5815 555.221L68.3449 534.282L57.7517 505.76L70.9203 484.137L71.821 455.186L77.8852 426.289L87.7679 398.129L101.596 370.611L117.987 344.246L136.865 318.939L156.947 294.986L177.981 272.291L198.838 250.99L219.187 231.002L238.077 212.353L255.09 194.964L302.563 183.523L347.663 173.234L390.48 163.896L430.785 155.443L468.87 147.7L504.189 140.613L537.174 134.035L566.924 127.966L593.997 122.259L617.111 116.913L621.805 106.678L620.968 96.9251L615.196 87.574L602.89 78.7321L584.647 70.359L558.855 62.6289L557.891 59.5476L549.797 57.6854L526.758 54.4032L522.318 53.8003L520.352 53.4654L503.859 51.4693L501.017 51.1209" stroke="white" stroke-opacity="0.5" stroke-linecap="round" stroke-linejoin="round"/>
</g>
<g style="mix-blend-mode:overlay">
<path d="M199.421 650.246L186.913 647.365L182.206 645.302L176.243 642.194L174.454 641.819L173.744 641.886L165.485 638.51L163.138 636.795L147.699 632.267L129.887 624.832L99.2236 612.024L81.2596 594.474L70.8313 575.143L66.5813 555.221L49.315 527.101L57.7515 505.76L53.1844 476.554L53.4762 447.577L58.9568 418.72L68.2306 390.68L81.3103 363.364L96.8005 337.253L114.524 312.254L133.173 288.649L152.469 266.329L171.245 245.457L189.158 225.911L238.077 212.353L285.043 200.122L329.915 189.042L372.668 178.995L413.442 169.791L451.933 161.378L488.445 153.594L522.33 146.427L554.047 139.715L582.579 133.472L608.459 127.564L630.318 122.017L636.915 111.809L638.183 102.056L634.834 92.6781L625.167 83.7424L609.893 75.2219L587.298 67.2775L561.747 60.8738L558.436 61.2891L553.92 65.6163L542.629 68.9789L526.377 72.6497L504.607 76.7626L478.473 81.3041L447.429 86.4352L412.415 92.1691L372.934 98.7202L329.635 106.115L282.163 114.596L230.884 124.282L175.596 135.401L116.439 148.128L53.4001 162.731L39.2547 152.308L18.8294 143.412L-0.339844 138.308" stroke="white" stroke-opacity="0.5" stroke-linecap="round" stroke-linejoin="round"/>
</g>
<g style="mix-blend-mode:overlay">
<path d="M153.255 631.745L145.669 628.302L121.159 617.156L102.142 600.463L93.9587 593.858L70.8313 575.143L65.3761 569.409L45.5218 548.59L26.9741 520.51" stroke="white" stroke-opacity="0.5" stroke-linecap="round" stroke-linejoin="round"/>
</g>
<g style="mix-blend-mode:overlay">
<path d="M147.344 624.042L145.25 622.126L141.838 618.107L129.646 602.432L120.486 582.457L116.427 573.16L108.612 555.288" stroke="white" stroke-opacity="0.5" stroke-linecap="round" stroke-linejoin="round"/>
</g>
<g style="mix-blend-mode:overlay">
<path d="M398.65 280.302L393.309 283.303L388.526 285.969L369.078 296.875L360.134 303.077L343.375 314.331L334.672 319.823L313.372 333.247L304.707 338.981L282.962 353.383L276.061 358.326L253.453 374.537L245.892 380.445L225.01 396.735L219.073 401.947L199.016 419.591L175.343 443.183L155.425 466.949L138.856 491.05L127.083 514.722L126.868 541.382L131.029 566.917L134.822 579.872L138.311 591.782L149.361 614.931L159.091 632.133" stroke="white" stroke-opacity="0.5" stroke-linecap="round" stroke-linejoin="round"/>
</g>
<g style="mix-blend-mode:overlay">
<path d="M301.751 347.595L288.468 357.402L269.045 371.429L260.418 378.516L241.731 393.882L223.881 410.186L216.117 417.286L209.216 424.36L192.266 441.722L187.293 447.764L171.778 466.614L166.399 474.531L154.435 492.095L151.023 498.954L141.85 517.375L138.717 526.887L133.541 542.642L131.029 566.917L133.68 590.522L139.161 603.611" stroke="white" stroke-opacity="0.5" stroke-linecap="round" stroke-linejoin="round"/>
</g>
<g style="mix-blend-mode:overlay">
<path d="M233.358 413.147L227.56 417.621L225.987 417.527L210.167 434.166L205.016 440.423L189.348 459.46L183.995 467.11L170.991 485.678L167.578 492.028L156.807 512.11L153.509 520.738L146.557 538.904L141.901 565.055L142.358 590.804L147.99 614.811L151.302 621.576" stroke="white" stroke-opacity="0.5" stroke-linecap="round" stroke-linejoin="round"/>
</g>
<g style="mix-blend-mode:overlay">
<path d="M173.82 640.171L172.97 639.89L172.019 639.394L169.342 638.818L164.394 636.688L164.077 635.161L163.316 635.416L162.009 635.362L161.781 634.799L161.375 633.969L161.032 633.593L160.499 633.245L159.218 632.361L157.48 632.12L156.135 632.214L140.658 622.595L137.105 618.776L119.547 607.202L110.388 599.244L90.2797 581.801L84.3297 562.349L84.3678 541.65L74.7261 513.262L85.9536 491.72L87.4126 462.916L107.647 441.722L118.317 413.642L133.059 386.045L150.591 359.438L170.953 333.783L192.951 309.347L216.434 286.09L240.348 264.159L264.351 243.501L287.643 224.129L309.705 206.003L329.915 189.043L347.663 173.234L362.506 158.457L404.993 149.816L444.994 141.966L482.038 134.879L516.558 128.341L547.754 122.366L576.159 116.779L580.384 106.169L603.029 101.386L620.968 96.9251L634.834 92.6783L642.979 88.6592L646.671 84.131L651.872 85.5645L657.175 88.6324L658 89.1013" stroke="white" stroke-opacity="0.5" stroke-linecap="round" stroke-linejoin="round"/>
</g>
<g style="mix-blend-mode:overlay">
<path d="M194.601 646.964L185.822 644.097L183.728 643.4L178.869 642.596L174.454 641.819L169.431 638.979L164.622 635.764L163.481 635.027L161.464 634.438L157.569 632.013L155.755 628.797L151.543 625.194L145.25 622.126L133.604 614.248L123.214 604.549L106.417 588.861L99.8072 580.917L84.3297 562.349L81.0566 556.588L68.3448 534.282L74.7261 513.262L70.9201 484.137L87.4125 462.916L93.9588 434.059L104.286 405.886L118.659 378.274L135.723 351.749L155.463 326.214L176.649 301.979L199.054 278.963L221.623 257.313L244.002 236.963L265.29 217.913L309.705 206.003L352.344 195.111L393.131 185.131L432.218 175.914L469.212 167.42L504.443 159.489L537.174 152.147L567.811 145.235L582.579 133.472L593.996 122.259L600.644 111.595L603.029 101.386L599.642 91.7003L591.015 82.443L575.601 73.7484L553.92 65.6164L524.411 58.2213L516.989 61.182L483.205 54.2558L441.644 48.2808L391.546 43.0024L386.966 41.9976L356.544 40.8455L350.517 40.6177L330.663 41.0062L264.427 40.2158L260.9 42.2789L250.282 45.1995L231.937 49.1248L207.236 53.9477L175.482 59.9093L137.917 66.9427L93.7811 75.3694L44.177 85.1626L-0.339844 94.3529" stroke="white" stroke-opacity="0.5" stroke-linecap="round" stroke-linejoin="round"/>
</g>
<g style="mix-blend-mode:overlay">
<path d="M229.184 422.471L227.205 423.73L222.447 428.392L220.519 428.767L207.909 446.492L202.593 453.967L189.412 472.455L185.999 478.336L173.921 499.128L170.623 506.443L161.514 526.592L159.878 532.5L153.902 554.016L150.883 581.493L154.042 607.912L162.948 633.513" stroke="white" stroke-opacity="0.5" stroke-linecap="round" stroke-linejoin="round"/>
</g>
<g style="mix-blend-mode:overlay">
<path d="M225.074 429.665L222.98 433.108L217.183 443.986L213.415 457.115L209.545 468.891L199.624 494.024L190.833 520.429L184.578 547.652L181.28 575.638L182.396 603.665L188.054 631.678L194.601 646.964" stroke="white" stroke-opacity="0.5" stroke-linecap="round" stroke-linejoin="round"/>
</g>
<g style="mix-blend-mode:overlay">
<path d="M212.121 457.129L206.64 468.355L199.904 482.195L198.166 486.468L189.184 508.439L180.481 535.782L175.305 563.621L173.909 591.916L177.779 619.781L185.822 644.097" stroke="white" stroke-opacity="0.5" stroke-linecap="round" stroke-linejoin="round"/>
</g>
<g style="mix-blend-mode:overlay">
<path d="M524.094 598.453L523.168 604.013L520.06 622.487L517.852 631.584L512.486 641.511L512.08 644.753" stroke="white" stroke-opacity="0.5" stroke-linecap="round" stroke-linejoin="round"/>
</g>
<g style="mix-blend-mode:overlay">
<path d="M233.409 409.73L227.446 417.568L219.149 428.473L213.77 435.051L198.597 453.592L193.269 461.108L179.999 479.823L176.586 485.919L165.041 506.523L161.717 514.495L153.661 533.786L147.559 560.687L146.367 587.401L151.632 612.734L162.111 633.607L164.077 635.161" stroke="white" stroke-opacity="0.5" stroke-linecap="round" stroke-linejoin="round"/>
</g>
<g style="mix-blend-mode:overlay">
<path d="M263.869 381.784L249.318 397.486L248.506 398.356L239.803 409.02L237.874 411.378L237.824 411.606L237.354 412.437L236.009 413.307L233.548 416.081L233.028 417.903L231.912 419.537L231.252 420.93L231.392 421.118L228.892 422.551L227.497 424.079L228.156 425.807L228.271 426.155L227.053 427.468L225.962 429.799L225.936 431.795L223.285 435.747L217.183 443.986L213.681 450.109L210.903 457.115L209.545 468.891L209.647 479.207L212.083 488.022L216.929 495.176L223.932 500.722L232.939 504.648L243.9 506.965L256.409 507.876L270.555 507.354L285.74 505.72L302.182 502.92L319.042 499.369L336.626 494.989L353.943 490.246L371.298 485.008L387.549 479.729L403.04 474.264L416.462 469.052L428.146 463.948L436.735 459.313L442.495 455.052L444.068 451.502" stroke="white" stroke-opacity="0.5" stroke-linecap="round" stroke-linejoin="round"/>
</g>
<g style="mix-blend-mode:overlay">
<path d="M1350.82 159.074L1350.78 158.873L1349.05 148.302L1343.88 117.302L1333.87 78.0354L1342.63 59.0653L1334.1 21.3931L1324.52 -14.9663L1313.27 -49.0749L1301.51 -81.8572L1288.47 -112.389L1275.83 -140" stroke="white" stroke-opacity="0.5" stroke-linecap="round" stroke-linejoin="round"/>
</g>
<g style="mix-blend-mode:overlay">
<path d="M157.797 631.155L156.909 630.686L155.247 629.454L151.302 626.118L147.369 624.778L133.604 614.248L119.459 595.894L110.997 576.402L108.612 555.302L108.599 555.261L101 527.543L109.538 505.411L112.05 477.278L129.646 455.307L140.823 427.816L165.511 406.85L183.576 380.78L213.466 361.367L236.631 337.226L261.89 313.982L288.316 291.824L315.719 270.764L343.413 250.829L370.943 232.033L408.089 220.458L444.182 209.58L470.544 193.906L504.633 184.635L528.344 170.742L549.302 157.667L567.812 145.234L595.265 138.777L620.055 132.628L640.658 126.84L657.695 121.267L669.329 115.976L676.522 109.786L676.218 105.981" stroke="white" stroke-opacity="0.5" stroke-linecap="round" stroke-linejoin="round"/>
</g>
<g style="mix-blend-mode:overlay">
<path d="M509.276 500.388L510.456 504.46L505.787 510.958L498.112 517.268L486.859 524.261L473.208 531.616L457.097 539.453L439.615 547.424L420.674 555.637L401.225 563.715L381.155 571.74L361.225 579.269L341.345 586.356L322.036 592.612L303.26 597.971L285.309 602.124L268.22 604.951L252.07 606.264L237.062 605.875L223.082 603.745L210.497 599.619L199.104 593.657L189.475 585.552L181.28 575.638L175.304 563.621L171.105 549.97L169.596 534.416L170.217 517.549L173.922 499.128L179.998 479.823L189.348 459.46L201.134 438.641L216.117 417.286L233.37 395.932L253.453 374.537L275.452 353.49L299.67 332.819L325.297 312.763L352.37 293.365L380.255 274.743L408.685 256.965L437.28 240.005L465.47 223.928L493.152 208.669L519.476 194.267L544.557 180.589L567.291 167.688L595.151 159.918L613.419 148.41L629.113 137.357L640.657 126.841L648.777 116.699L651.771 106.986L650.426 97.6218L642.979 88.6592L630.216 80.0852L610.375 72.0068L588.617 65.7504L584.101 64.4375L573.482 62.0529L565.185 60.7266L557.903 59.6012L549.797 57.6855L526.758 54.4032L520.351 53.4654L507.893 51.764L501.017 51.121L484.157 49.299L480.376 49.1382L446.922 46.3115L441.619 47.2225L434.388 51.0004L421.181 54.2157L401.466 58.0874L376.449 62.5352L345.544 67.7734L309.781 73.7886L268.601 80.822L222.828 88.9138L171.955 98.3318L116.566 109.157L56.2926 121.696L-0.339844 134.289" stroke="white" stroke-opacity="0.5" stroke-linecap="round" stroke-linejoin="round"/>
</g>
<g style="mix-blend-mode:overlay">
<path d="M642.332 81.2372L646.506 84.2114L656.769 93.4017L662.389 102.324L662.085 111.648L657.695 121.267L648.371 131.315L635.849 141.724L619.357 152.63L600.454 164.004L578.57 175.994L555.023 188.547L529.447 201.823L502.907 215.756L475.276 230.452L447.328 245.872L419.215 262.056L391.393 278.936L364.282 296.486L338.072 314.639L313.371 333.247L290.104 352.271L269.045 371.429L250.713 391.484L249.444 394.27L234.322 410.414L234.461 411.954L234.36 413.803L234.322 416.322L233.129 417.943L231.556 419.39L230.795 420.984L229.717 422.967L228.22 424.36L227.332 425.566L226.647 427.334L226.025 429.638L227.979 436.364L231.404 441.588L236.643 445.581L243.926 448.22L252.502 449.761L262.714 450.109L273.574 449.64L285.537 448.193L297.412 446.251L309.68 443.625L321.034 440.811L331.957 437.636L341.015 434.582L348.69 431.46L353.511 428.741L356.391 425.7L384.961 431.233L389.363 432.385L419.075 442.191L444.359 450.832L447.264 451.516L459.532 457.812L459.634 457.866L465 460.639L465.799 464.189L482.825 478.43L496.234 493.984L505.787 510.958L512.511 529.178L516.203 548.831L517.839 569.757L508.401 578.224L496.577 587.133L482.457 596.578L467.017 606.237L450.296 616.177L433.106 626.038L415.447 635.844L397.914 645.235L380.483 654.171L372.681 657.922" stroke="white" stroke-opacity="0.5" stroke-linecap="round" stroke-linejoin="round"/>
</g>
<g style="mix-blend-mode:overlay">
<path d="M1352.08 215.153L1352.46 212.42L1354.51 198.219L1358.61 167.031L1360.69 124.094L1360.74 82.1483L1358.03 42.2923L1354.17 3.56173L1348.36 -32.9851L1342.04 -68.3397L1334.26 -101.47L1326.29 -133.328L1324.19 -140" stroke="white" stroke-opacity="0.5" stroke-linecap="round" stroke-linejoin="round"/>
</g>
<g style="mix-blend-mode:overlay">
<path d="M172.184 639.635L169.646 638.992L167.185 638.202L166.018 637.546L164.039 636.648L162.504 636.42L147.699 632.267L121.159 617.155L107.99 609.68L81.2596 594.474L73.7492 588.807L47.9195 569.301L42.7688 564.251L20.9608 542.856L1.04298 514.87L-0.339844 512.043" stroke="white" stroke-opacity="0.5" stroke-linecap="round" stroke-linejoin="round"/>
</g>
<g style="mix-blend-mode:overlay">
<path d="M667.603 132.789L667.147 133.043L656.236 139.099L640.302 145.677L619.357 152.63L595.151 159.918L573.723 172.082L544.557 180.589L512.701 189.699L486.77 204.261L452.263 214.925L416.804 226.192L388.539 243.836L360.083 262.471L331.805 282.165L304.123 302.85L277.659 324.486L244.75 342.625L221.661 366.378L192.317 386.42L174.239 412.035L150.198 433.644L138.818 460.612L121.945 483.213L118.862 510.77L119.509 538.247L124.85 564.693L129.773 579.095L133.68 590.522L138.92 600.316L142.649 607.269L147.99 614.811L160.436 633.151" stroke="white" stroke-opacity="0.5" stroke-linecap="round" stroke-linejoin="round"/>
</g>
<g style="mix-blend-mode:overlay">
<path d="M224.49 433.43L223.488 437.61L217.906 455.481L217.309 457.196L209.647 479.207L201.616 504.353L195.057 530.598L190.553 557.847L189.475 585.552L192.139 613.632L199.903 641.257L203.519 648.879" stroke="white" stroke-opacity="0.5" stroke-linecap="round" stroke-linejoin="round"/>
</g>
<g style="mix-blend-mode:overlay">
<path d="M674.632 123.558L672.678 126.117L672.361 126.8L667.603 132.789L664.279 135.924L656.718 142.1L652.9 145.315L642.953 150.419L624.939 159.797L606.201 171.613L599.325 176.315L582.54 183.643L559.286 194.482L533.38 208.24L525.629 212.889L506.853 222.267L500.243 225.63L480.008 235.918L473.779 239.187L452.999 250.133L426.116 264.909L399.157 280.236L381.777 290.846L372.541 296.62L348.919 312.375L323.838 330.38L301.751 347.595L281.858 364.743L269.045 376.198L257.399 386.607L242.048 404.68L237.379 411.445L237.062 412.383L236.453 413.401L235.489 414.661L233.548 416.081L231.277 419.256L231.379 421.011L231.429 421.131L230.161 423.369L229.146 425.177L228.182 426.035L227.205 426.664L227.053 427.468L226.964 428.634L226.786 428.928L226.494 429.424L226.368 430.214L225.86 430.496L224.35 433.832L224.021 442.312L224.896 450.002L228.131 456.245L233.447 461.108L240.894 464.497L249.939 466.627L260.786 467.418L272.673 467.19L285.892 465.837L299.48 463.801L313.828 460.92L327.745 457.692L341.7 453.94L354.349 450.149L366.147 446.157L375.687 442.419L383.363 438.762L387.74 435.613L414.812 446.599L436.735 459.313L454.775 473.42L468.59 489.04L479.374 505.934L486.859 524.261L492.137 543.821L495.042 564.84L496.577 587.133L496.704 610.939L483.548 620.907L468.882 631.249L453.57 641.591L437.661 651.961L435.276 653.461" stroke="white" stroke-opacity="0.5" stroke-linecap="round" stroke-linejoin="round"/>
</g>
<g style="mix-blend-mode:overlay">
<path d="M520.059 622.487L518.156 631.035L515.632 644.164" stroke="white" stroke-opacity="0.5" stroke-linecap="round" stroke-linejoin="round"/>
</g>
<g style="mix-blend-mode:overlay">
<path d="M674.631 123.558L673.464 124.469L667.184 129.332L653.585 135.401L635.849 141.724L613.419 148.41L588.034 155.403L567.291 167.688L537.237 175.887L512.701 189.699L479.31 199.318L452.263 214.925L424.403 231.417L395.846 248.9L367.238 267.348L338.96 286.76L311.367 307.11L285.08 328.317L260.177 350.342L237.493 372.956L216.776 396.173L199.015 419.591L183.677 443.263L171.777 466.614L162.491 489.804L156.807 512.11L153.661 533.786L153.902 554.016L156.325 573.146L161.628 590.402L168.606 606.183L177.778 619.781L188.054 631.678L199.903 641.257L212.4 649.027L221.559 652.724" stroke="white" stroke-opacity="0.5" stroke-linecap="round" stroke-linejoin="round"/>
</g>
<g style="mix-blend-mode:overlay">
<path d="M181.673 646.173L160.74 641.364L125.345 628.114L99.2236 612.024L87.3364 605.755L56.8127 589.611L49.6703 584.587L21.3667 564.68L-0.339844 544.799" stroke="white" stroke-opacity="0.5" stroke-linecap="round" stroke-linejoin="round"/>
</g>
<g style="mix-blend-mode:overlay">
<path d="M181.229 645.235L160.74 641.364L136.991 635.295L99.6423 625.743L84.7738 620.531L44.8113 606.518L33.9771 601.615L-0.339844 586.074" stroke="white" stroke-opacity="0.5" stroke-linecap="round" stroke-linejoin="round"/>
</g>
<g style="mix-blend-mode:overlay">
<path d="M496.983 484.794L499.076 488.424L509.91 505.224L517.344 522.854L522.026 541.731L516.203 548.831L507.183 556.507L495.042 564.84L480.845 573.535L464.632 582.672L447.366 591.942L429.021 601.374L410.397 610.631L391.469 619.728L372.782 628.288L354.31 636.273L336.334 643.373L318.89 649.455L301.966 654.319L285.689 657.748L279.156 658.539" stroke="white" stroke-opacity="0.5" stroke-linecap="round" stroke-linejoin="round"/>
</g>
<g style="mix-blend-mode:overlay">
<path d="M249.863 390.72L242.936 397.178L228.207 410.588L224.833 414.085L217.754 421.426L201.134 438.641L196.098 444.75L180.379 463.854L175 471.651L162.491 489.804L159.079 496.449L149.145 515.754L145.923 524.917L139.973 541.851L136.547 567.104L138.311 591.782L146.62 614.677L151.34 621.751L155.501 627.793" stroke="white" stroke-opacity="0.5" stroke-linecap="round" stroke-linejoin="round"/>
</g>
<g style="mix-blend-mode:overlay">
<path d="M249.317 397.486L239.726 409.141L238.141 411.405L237.988 411.633L237.417 412.45L236.72 413.455L235.667 414.875L233.523 416.067L230.135 418.76L228.892 422.551L228.676 424.896L228.093 426.061L227.712 427.709L227.598 428.031L228.841 428.727L234.614 431.567L241.338 433.644L249.013 434.809L258.058 434.93L267.358 434.408L277.393 433.081L297.412 446.25L313.828 460.92L326.426 477.305L336.626 494.989L344.326 514.227L350.797 534.63L356.061 556.414L361.225 579.269L366.49 603.33L372.782 628.288L380.483 654.171L381.714 657.467" stroke="white" stroke-opacity="0.5" stroke-linecap="round" stroke-linejoin="round"/>
</g>
<g style="mix-blend-mode:overlay">
<path d="M248.506 398.356L242.048 404.68L236.098 411.204L235.375 412.102" stroke="white" stroke-opacity="0.5" stroke-linecap="round" stroke-linejoin="round"/>
</g>
</g>
</svg>
